<?xml version="1.0" encoding="UTF-8"?>
<svg id="Layer_1" data-name="Layer 1" xmlns="http://www.w3.org/2000/svg" viewBox="0 0 218.43 62.7">
  <defs>
    <style>
      .cls-1 {
        fill: #fff;
      }
    </style>
  </defs>
  <path class="cls-1" d="m60.27,17.08C55.69,6.7,45.4,0,34.05,0c-9.01,0-17.3,4.11-22.78,11.27C4.11,16.75,0,25.04,0,34.05c0,15.8,12.85,28.65,28.65,28.65h0c.9,0,1.8-.04,2.69-.13.89.08,1.79.13,2.69.13h.01c6.51,0,12.88-2.25,17.95-6.33,3.24-2.6,5.92-5.95,7.75-9.67.08-.17.09-.35.03-.53-.06-.18-.19-.32-.36-.4-.35-.16-.76-.02-.93.33-1.74,3.53-4.28,6.7-7.36,9.18-3.72,3-8.04,4.91-12.67,5.66,3.63-1.33,7-3.38,9.83-6.05,1.13-1.07,2.17-2.23,3.11-3.46,1.81-1.38,3.44-2.95,4.85-4.68.12-.14.17-.32.15-.51s-.11-.35-.26-.47c-.3-.24-.73-.19-.98.11-1.33,1.62-2.86,3.1-4.54,4.39l-.1.08c-1.32,1.01-2.73,1.89-4.2,2.62h0l-.1.05c-3.79,1.9-7.88,2.87-12.17,2.87-14.11,0-25.77-10.57-27.14-24.59,1.28-12.9,11.55-23.15,24.46-24.41,7.78.77,14.86,4.86,19.43,11.24.22.31.66.39.97.17.15-.11.26-.27.29-.45s0-.36-.12-.51c-3.37-4.7-8.04-8.22-13.34-10.19,6.76,1.16,12.96,4.86,17.15,10.38.23.3.67.37.97.15.15-.11.25-.27.28-.46.03-.18-.02-.36-.13-.51-5.39-7.11-13.93-11.35-22.84-11.35-.9,0-1.81.04-2.7.13-.89-.08-1.8-.13-2.7-.13-4.58,0-8.99,1.08-12.99,3.12C20.61,3.91,27.09,1.36,34.01,1.36c10.79,0,20.58,6.37,24.94,16.24.16.35.57.52.91.37.17-.07.31-.21.38-.38s.07-.36,0-.53l.03.02Zm-26.22,40.23h.08c4.43-.02,8.67-1.02,12.6-2.97h0l.1-.05s.07-.04.1-.05l.06-.03c-4.32,3.93-9.87,6.4-15.68,6.97-12.45-1.24-22.17-10.6-24.16-22.57,4.04,11.04,14.57,18.7,26.89,18.7h.01ZM5.52,31.35c-.08.89-.13,1.8-.13,2.7,0,12.29,7.63,22.8,18.63,26.86C11.18,58.71,1.38,47.5,1.38,34.05c0-6.91,2.55-13.39,7.12-18.37-2.04,3.99-3.11,8.4-3.11,12.98,0,.9.04,1.81.13,2.7h0ZM24.17,7.15c-7.87,2.89-14.12,9.13-17.02,17,.71-4.3,2.44-8.34,5.11-11.88,3.55-2.68,7.6-4.41,11.91-5.12Z"/>
  <g>
    <g>
      <path class="cls-1" d="m84.86,35.43c-2.24,0-4.16-.47-5.76-1.41-1.6-.94-2.83-2.28-3.7-4.02-.86-1.74-1.3-3.79-1.3-6.16s.43-4.42,1.3-6.14c.86-1.73,2.1-3.06,3.7-4s3.52-1.41,5.76-1.41c1.54,0,2.97.24,4.3.72,1.33.48,2.45,1.19,3.34,2.13l-1.09,2.37c-.98-.88-2-1.51-3.04-1.92-1.05-.41-2.2-.61-3.46-.61-2.47,0-4.37.77-5.68,2.3-1.31,1.54-1.97,3.72-1.97,6.56s.66,5.03,1.97,6.58c1.31,1.55,3.21,2.32,5.68,2.32,1.26,0,2.41-.2,3.46-.61,1.04-.41,2.06-1.04,3.04-1.92l1.09,2.37c-.9.92-2.01,1.62-3.34,2.11s-2.77.74-4.3.74h0Z"/>
      <path class="cls-1" d="m97.36,35.15V12.59h2.98v22.56h-2.98Z"/>
      <path class="cls-1" d="m112.54,35.15V15.12h-8.1v-2.53h19.17v2.53h-8.1v20.03h-2.98,0Z"/>
      <path class="cls-1" d="m134.75,35.15v-11.68l.64,1.98-9.28-12.86h3.46l7.1,9.82h-.74l7.1-9.82h3.3l-9.25,12.86.64-1.98v11.68h-2.98.01Z"/>
      <path class="cls-1" d="m163.68,35.15V15.12h-8.1v-2.53h19.17v2.53h-8.1v20.03h-2.98,0Z"/>
      <path class="cls-1" d="m173.68,35.15l9.98-22.56h2.53l9.98,22.56h-3.04l-2.75-6.4,1.38.77h-13.7l1.38-.77-2.72,6.4h-3.04Zm11.2-19.2l-4.99,11.81-.77-.67h11.58l-.74.67-5.02-11.81h-.06,0Z"/>
      <path class="cls-1" d="m197.85,35.15l9.06-12.1v1.15l-8.67-11.62h3.49l6.91,9.47h-.93l6.85-9.47h3.49l-8.64,11.62v-1.15l9.02,12.1h-3.52l-7.33-10.05h1.12l-7.33,10.05h-3.52Z"/>
    </g>
    <g>
      <path class="cls-1" d="m74.12,46.72h1.36v7.97h.07l1.34-1.5,2.48-2.67h1.65l-3.25,3.47,3.57,5.3h-1.65l-2.91-4.47-1.31,1.34v3.13h-1.36v-12.58h.01Z"/>
      <path class="cls-1" d="m86.61,59.51c-.59,0-1.13-.11-1.62-.32s-.9-.52-1.25-.93-.62-.88-.81-1.45-.29-1.19-.29-1.9.1-1.32.29-1.89.46-1.05.81-1.45c.35-.4.76-.71,1.25-.93.49-.22,1.03-.32,1.62-.32s1.12.11,1.61.32c.48.21.9.52,1.25.93.35.4.62.89.82,1.45.19.57.29,1.2.29,1.89s-.1,1.33-.29,1.9c-.19.56-.46,1.04-.82,1.45-.35.4-.77.71-1.25.93-.48.22-1.02.32-1.61.32Zm0-1.21c.74,0,1.34-.23,1.8-.68s.7-1.14.7-2.07v-1.26c0-.93-.23-1.62-.7-2.07s-1.07-.68-1.8-.68-1.34.23-1.8.68-.7,1.14-.7,2.07v1.26c0,.93.23,1.62.7,2.07s1.07.68,1.8.68Zm-1.56-9.5c-.29,0-.51-.07-.64-.21s-.2-.33-.2-.57v-.19c0-.24.06-.43.2-.57.13-.14.34-.21.64-.21s.51.07.64.21.2.33.2.57v.19c0,.24-.07.43-.2.57-.13.14-.34.21-.64.21Zm3.16,0c-.29,0-.51-.07-.64-.21s-.2-.33-.2-.57v-.19c0-.24.06-.43.2-.57.13-.14.34-.21.64-.21s.51.07.64.21.2.33.2.57v.19c0,.24-.07.43-.2.57-.13.14-.34.21-.64.21Z"/>
      <path class="cls-1" d="m93.33,59.3v-8.77h1.36v1.41h.07c.21-.49.52-.89.91-1.18s.92-.44,1.57-.44c.91,0,1.62.29,2.15.88.53.58.79,1.41.79,2.47v5.63h-1.36v-5.4c0-1.58-.66-2.37-1.99-2.37-.27,0-.54.03-.79.1s-.48.17-.69.31c-.2.14-.37.31-.48.52s-.18.46-.18.74v6.1h-1.36Z"/>
      <path class="cls-1" d="m108.76,50.53h1.34l-3.93,10.81c-.1.26-.2.48-.31.65-.1.18-.23.31-.37.42-.15.1-.33.18-.55.22-.22.04-.49.07-.81.07h-.7v-1.21h1.38l.66-1.87-3.28-9.1h1.36l2.11,5.96.41,1.43h.08l.48-1.43,2.12-5.96h.01Z"/>
      <path class="cls-1" d="m114.29,59.3l-3.08-8.77h1.36l1.53,4.35.95,2.99h.08l.95-2.99,1.56-4.35h1.31l-3.09,8.77h-1.58,0Z"/>
      <path class="cls-1" d="m124.39,59.51c-.6,0-1.14-.11-1.62-.32s-.9-.52-1.24-.93c-.35-.4-.61-.88-.8-1.45-.19-.56-.28-1.19-.28-1.9s.09-1.32.28-1.89c.19-.57.45-1.05.8-1.45.34-.4.76-.71,1.24-.93.48-.22,1.02-.32,1.62-.32s1.12.11,1.58.32.86.51,1.19.89.58.83.76,1.35.26,1.09.26,1.71v.64h-6.31v.41c0,.37.06.72.18,1.04s.29.6.51.84.49.42.82.56c.32.14.69.2,1.1.2.55,0,1.04-.13,1.45-.39s.73-.63.96-1.12l.97.7c-.28.6-.73,1.09-1.33,1.46s-1.31.56-2.14.56v.02Zm0-8.04c-.37,0-.71.07-1.02.19-.31.13-.57.31-.79.55-.22.24-.39.52-.52.84s-.19.67-.19,1.06v.12h4.85v-.19c0-.78-.21-1.4-.64-1.87-.42-.47-.99-.7-1.69-.7h0Z"/>
      <path class="cls-1" d="m132.38,59.3c-.48,0-.84-.13-1.08-.4s-.37-.6-.37-1.01v-11.17h1.36v11.37h1.29v1.21h-1.21,0Z"/>
      <path class="cls-1" d="m139.38,59.51c-.59,0-1.13-.11-1.62-.32s-.9-.52-1.25-.93-.62-.88-.81-1.45-.29-1.19-.29-1.9.1-1.32.29-1.89.46-1.05.81-1.45c.35-.4.76-.71,1.25-.93.49-.22,1.03-.32,1.62-.32s1.12.11,1.61.32c.48.21.9.52,1.25.93.35.4.62.89.82,1.45.19.57.29,1.2.29,1.89s-.1,1.33-.29,1.9c-.19.56-.46,1.04-.82,1.45-.35.4-.77.71-1.25.93-.48.22-1.02.32-1.61.32Zm0-1.21c.74,0,1.34-.23,1.8-.68s.7-1.14.7-2.07v-1.26c0-.93-.23-1.62-.7-2.07s-1.07-.68-1.8-.68-1.34.23-1.8.68-.7,1.14-.7,2.07v1.26c0,.93.23,1.62.7,2.07s1.07.68,1.8.68Zm-1.22-8.96l-.82-.37,1.45-2.89,1.17.56-1.8,2.7Zm2.72,0l-.82-.37,1.44-2.89,1.17.56-1.8,2.7h.01Z"/>
      <path class="cls-1" d="m146.77,48.47c-.29,0-.51-.07-.64-.21s-.2-.33-.2-.55v-.22c0-.23.07-.41.2-.55s.34-.21.64-.21.51.07.64.21.2.33.2.55v.22c0,.23-.07.41-.2.55s-.34.21-.64.21Zm-.68,2.06h1.36v8.77h-1.36v-8.77Z"/>
      <path class="cls-1" d="m150.85,59.3v-8.77h1.36v1.61h.08c.16-.42.44-.79.85-1.12s.97-.49,1.68-.49h.53v1.36h-.8c-.74,0-1.31.14-1.73.42-.41.28-.62.63-.62,1.04v5.95h-1.36.01Z"/>
      <path class="cls-1" d="m160.83,59.51c-.59,0-1.13-.11-1.62-.32s-.9-.52-1.25-.93-.62-.88-.81-1.45-.29-1.19-.29-1.9.1-1.32.29-1.89.46-1.05.81-1.45c.35-.4.76-.71,1.25-.93.49-.22,1.03-.32,1.62-.32s1.12.11,1.61.32c.48.21.9.52,1.25.93.35.4.62.89.82,1.45.19.57.29,1.2.29,1.89s-.1,1.33-.29,1.9c-.19.56-.46,1.04-.82,1.45-.35.4-.77.71-1.25.93-.48.22-1.02.32-1.61.32Zm0-1.21c.74,0,1.34-.23,1.8-.68s.7-1.14.7-2.07v-1.26c0-.93-.23-1.62-.7-2.07s-1.07-.68-1.8-.68-1.34.23-1.8.68-.7,1.14-.7,2.07v1.26c0,.93.23,1.62.7,2.07s1.07.68,1.8.68Z"/>
      <path class="cls-1" d="m173.16,57.89h-.07c-.53,1.08-1.39,1.62-2.57,1.62-.54,0-1.04-.11-1.48-.32s-.82-.52-1.13-.92-.55-.88-.71-1.44c-.17-.57-.25-1.2-.25-1.9s.08-1.34.25-1.9c.16-.57.4-1.05.71-1.44s.69-.7,1.13-.92c.44-.22.93-.32,1.48-.32.61,0,1.14.13,1.57.4s.77.67,1,1.22h.07v-5.22h1.36v12.58h-1.36v-1.44Zm-2.26.41c.31,0,.6-.04.88-.12s.52-.2.72-.35.37-.34.49-.56c.12-.22.18-.48.18-.76v-3.28c0-.24-.06-.46-.18-.67-.12-.21-.28-.39-.49-.54-.2-.15-.44-.26-.72-.35-.28-.08-.57-.13-.88-.13-.77,0-1.38.24-1.82.73-.44.48-.66,1.12-.66,1.91v1.5c0,.79.22,1.42.66,1.91.44.48,1.05.73,1.82.73v-.02Z"/>
      <path class="cls-1" d="m184.29,59.3c-.51,0-.88-.14-1.1-.41s-.36-.61-.42-1.02h-.08c-.19.54-.51.95-.95,1.22s-.97.41-1.58.41c-.93,0-1.65-.24-2.17-.71s-.77-1.12-.77-1.94.3-1.46.91-1.9c.61-.44,1.55-.66,2.83-.66h1.73v-.87c0-.62-.17-1.1-.51-1.43s-.86-.49-1.56-.49c-.53,0-.98.12-1.33.36-.36.24-.65.55-.89.95l-.82-.76c.24-.48.62-.88,1.14-1.22.52-.33,1.18-.5,1.97-.5,1.07,0,1.89.26,2.48.78s.88,1.24.88,2.17v4.82h1v1.21h-.76Zm-3.91-.95c.34,0,.65-.04.93-.12s.53-.19.73-.34.36-.32.48-.51c.11-.19.17-.4.17-.63v-1.45h-1.8c-.78,0-1.35.11-1.71.34s-.54.55-.54.99v.36c0,.43.16.76.47,1s.73.36,1.27.36Z"/>
    </g>
  </g>
</svg>