<svg width="146" height="134" viewBox="0 0 146 134" fill="none" xmlns="http://www.w3.org/2000/svg">
<path d="M11.6291 105.96C9.38914 105.96 7.46914 105.49 5.86914 104.55C4.26914 103.61 3.03914 102.27 2.16914 100.53C1.30914 98.7898 0.869141 96.7398 0.869141 94.3698C0.869141 91.9998 1.29914 89.9498 2.16914 88.2298C3.02914 86.4998 4.26914 85.1698 5.86914 84.2298C7.46914 83.2898 9.38914 82.8198 11.6291 82.8198C13.1691 82.8198 14.5991 83.0598 15.9291 83.5398C17.2591 84.0198 18.3791 84.7298 19.2691 85.6698L18.1791 88.0398C17.1991 87.1598 16.1791 86.5298 15.1391 86.1198C14.0891 85.7098 12.9391 85.5098 11.6791 85.5098C9.20914 85.5098 7.30914 86.2798 5.99914 87.8098C4.68914 89.3498 4.02914 91.5298 4.02914 94.3698C4.02914 97.2098 4.68914 99.3998 5.99914 100.95C7.30914 102.5 9.20914 103.27 11.6791 103.27C12.9391 103.27 14.0891 103.07 15.1391 102.66C16.1791 102.25 17.1991 101.62 18.1791 100.74L19.2691 103.11C18.3691 104.03 17.2591 104.73 15.9291 105.22C14.5991 105.71 13.1591 105.96 11.6291 105.96Z" fill="white"/>
<path d="M24.1387 105.67V83.1099H27.1187V105.67H24.1387Z" fill="white"/>
<path d="M39.3187 105.67V85.6399H31.2188V83.1099H50.3887V85.6399H42.2887V105.67H39.3088H39.3187Z" fill="white"/>
<path d="M61.5287 105.67V93.9899L62.1687 95.9699L52.8887 83.1099H56.3487L63.4487 92.9299H62.7087L69.8087 83.1099H73.1087L63.8587 95.9699L64.4987 93.9899V105.67H61.5187H61.5287Z" fill="white"/>
<path d="M90.4594 105.67V85.6399H82.3594V83.1099H101.529V85.6399H93.4294V105.67H90.4494H90.4594Z" fill="white"/>
<path d="M100.459 105.67L110.439 83.1099H112.969L122.949 105.67H119.909L117.159 99.2699L118.539 100.04H104.839L106.219 99.2699L103.499 105.67H100.459ZM111.659 86.4699L106.669 98.2799L105.899 97.6099H117.479L116.739 98.2799L111.719 86.4699H111.659Z" fill="white"/>
<path d="M124.619 105.67L133.679 93.5696V94.7196L125.009 83.0996H128.499L135.409 92.5696H134.479L141.329 83.0996H144.819L136.179 94.7196V93.5696L145.199 105.67H141.679L134.349 95.6196H135.469L128.139 105.67H124.619Z" fill="white"/>
<path d="M102.61 17.9399C98.0298 7.55986 87.7398 0.859863 76.3898 0.859863C67.3798 0.859863 59.0898 4.96986 53.6098 12.1299C46.4498 17.6099 42.3398 25.8999 42.3398 34.9099C42.3398 50.7099 55.1898 63.5599 70.9898 63.5599C71.8898 63.5599 72.7898 63.5199 73.6798 63.4299C74.5698 63.5099 75.4698 63.5599 76.3698 63.5599H76.3798C82.8898 63.5599 89.2598 61.3099 94.3298 57.2299C97.5698 54.6299 100.25 51.2799 102.08 47.5599C102.16 47.3899 102.17 47.2099 102.11 47.0299C102.05 46.8499 101.92 46.7099 101.75 46.6299C101.4 46.4699 100.99 46.6099 100.82 46.9599C99.0798 50.4899 96.5398 53.6599 93.4598 56.1399C89.7398 59.1399 85.4198 61.0499 80.7898 61.7999C84.4198 60.4699 87.7898 58.4199 90.6198 55.7499C91.7498 54.6799 92.7898 53.5199 93.7298 52.2899C95.5398 50.9099 97.1698 49.3399 98.5798 47.6099C98.6998 47.4699 98.7498 47.2899 98.7298 47.0999C98.7098 46.9099 98.6198 46.7499 98.4698 46.6299C98.1698 46.3899 97.7398 46.4399 97.4898 46.7399C96.1598 48.3599 94.6298 49.8399 92.9498 51.1299L92.8498 51.2099C91.5298 52.2199 90.1198 53.0999 88.6498 53.8299L88.5498 53.8799C84.7598 55.7799 80.6698 56.7499 76.3798 56.7499C62.2698 56.7499 50.6098 46.1799 49.2398 32.1599C50.5198 19.2599 60.7898 9.00986 73.6998 7.74986C81.4798 8.51986 88.5598 12.6099 93.1298 18.9899C93.3498 19.2999 93.7898 19.3799 94.0998 19.1599C94.2498 19.0499 94.3598 18.8899 94.3898 18.7099C94.4198 18.5299 94.3898 18.3499 94.2698 18.1999C90.8998 13.4999 86.2298 9.97986 80.9298 8.00986C87.6898 9.16986 93.8898 12.8699 98.0798 18.3899C98.3098 18.6899 98.7498 18.7599 99.0498 18.5399C99.1998 18.4299 99.2998 18.2699 99.3298 18.0799C99.3598 17.8999 99.3098 17.7199 99.1998 17.5699C93.8098 10.4599 85.2698 6.21986 76.3598 6.21986C75.4598 6.21986 74.5498 6.25986 73.6598 6.34986C72.7698 6.26986 71.8598 6.21986 70.9598 6.21986C66.3798 6.21986 61.9698 7.29986 57.9698 9.33986C62.9498 4.76986 69.4298 2.21986 76.3498 2.21986C87.1398 2.21986 96.9298 8.58986 101.29 18.4599C101.45 18.8099 101.86 18.9799 102.2 18.8299C102.37 18.7599 102.51 18.6199 102.58 18.4499C102.65 18.2799 102.65 18.0899 102.58 17.9199L102.61 17.9399ZM76.3898 58.1699H76.4698C80.8998 58.1499 85.1398 57.1499 89.0698 55.1999L89.1698 55.1499C89.1998 55.1299 89.2398 55.1099 89.2698 55.0999C89.2898 55.0899 89.3098 55.0799 89.3298 55.0699C85.0098 58.9999 79.4598 61.4699 73.6498 62.0399C61.1998 60.7999 51.4798 51.4399 49.4898 39.4699C53.5298 50.5099 64.0598 58.1699 76.3798 58.1699H76.3898ZM47.8598 32.2099C47.7798 33.0999 47.7298 34.0099 47.7298 34.9099C47.7298 47.1999 55.3598 57.7099 66.3598 61.7699C53.5198 59.5699 43.7198 48.3599 43.7198 34.9099C43.7198 27.9999 46.2698 21.5199 50.8398 16.5399C48.7998 20.5299 47.7298 24.9399 47.7298 29.5199C47.7298 30.4199 47.7698 31.3299 47.8598 32.2199V32.2099ZM66.5098 8.00986C58.6398 10.8999 52.3898 17.1399 49.4898 25.0099C50.1998 20.7099 51.9298 16.6699 54.5998 13.1299C58.1498 10.4499 62.1998 8.71986 66.5098 8.00986Z" fill="white"/>
<path d="M17.26 117.25H18.62V125.22H18.69L20.03 123.72L22.51 121.05H24.16L20.91 124.52L24.48 129.82H22.83L19.92 125.35L18.61 126.69V129.82H17.25V117.24L17.26 117.25Z" fill="white"/>
<path d="M29.7591 130.03C29.1691 130.03 28.6291 129.92 28.1391 129.71C27.6491 129.5 27.2391 129.19 26.8891 128.78C26.5391 128.37 26.2691 127.9 26.0791 127.33C25.8891 126.76 25.7891 126.14 25.7891 125.43C25.7891 124.72 25.8891 124.11 26.0791 123.54C26.2691 122.97 26.5391 122.49 26.8891 122.09C27.2391 121.69 27.6491 121.38 28.1391 121.16C28.6291 120.94 29.1691 120.84 29.7591 120.84C30.3491 120.84 30.8791 120.95 31.3691 121.16C31.8491 121.37 32.2691 121.68 32.6191 122.09C32.9691 122.49 33.2391 122.98 33.4391 123.54C33.6291 124.11 33.7291 124.74 33.7291 125.43C33.7291 126.12 33.6291 126.76 33.4391 127.33C33.2491 127.89 32.9791 128.37 32.6191 128.78C32.2691 129.18 31.8491 129.49 31.3691 129.71C30.8891 129.93 30.3491 130.03 29.7591 130.03ZM29.7591 128.82C30.4991 128.82 31.0991 128.59 31.5591 128.14C32.0191 127.69 32.2591 127 32.2591 126.07V124.81C32.2591 123.88 32.0291 123.19 31.5591 122.74C31.0891 122.29 30.4891 122.06 29.7591 122.06C29.0291 122.06 28.4191 122.29 27.9591 122.74C27.4991 123.19 27.2591 123.88 27.2591 124.81V126.07C27.2591 127 27.4891 127.69 27.9591 128.14C28.4291 128.59 29.0291 128.82 29.7591 128.82ZM28.1991 119.32C27.9091 119.32 27.6891 119.25 27.5591 119.11C27.4291 118.97 27.3591 118.78 27.3591 118.54V118.35C27.3591 118.11 27.4191 117.92 27.5591 117.78C27.6891 117.64 27.8991 117.57 28.1991 117.57C28.4991 117.57 28.7091 117.64 28.8391 117.78C28.9691 117.92 29.0391 118.11 29.0391 118.35V118.54C29.0391 118.78 28.9691 118.97 28.8391 119.11C28.7091 119.25 28.4991 119.32 28.1991 119.32ZM31.3591 119.32C31.0691 119.32 30.8491 119.25 30.7191 119.11C30.5891 118.97 30.5191 118.78 30.5191 118.54V118.35C30.5191 118.11 30.5791 117.92 30.7191 117.78C30.8491 117.64 31.0591 117.57 31.3591 117.57C31.6591 117.57 31.8691 117.64 31.9991 117.78C32.1291 117.92 32.1991 118.11 32.1991 118.35V118.54C32.1991 118.78 32.1291 118.97 31.9991 119.11C31.8691 119.25 31.6591 119.32 31.3591 119.32Z" fill="white"/>
<path d="M36.4707 129.83V121.06H37.8307V122.47H37.9007C38.1107 121.98 38.4207 121.58 38.8107 121.29C39.2007 121 39.7307 120.85 40.3807 120.85C41.2907 120.85 42.0007 121.14 42.5307 121.73C43.0607 122.31 43.3207 123.14 43.3207 124.2V129.83H41.9607V124.43C41.9607 122.85 41.3007 122.06 39.9707 122.06C39.7007 122.06 39.4307 122.09 39.1807 122.16C38.9307 122.23 38.7007 122.33 38.4907 122.47C38.2907 122.61 38.1207 122.78 38.0107 122.99C37.9007 123.2 37.8307 123.45 37.8307 123.73V129.83H36.4707Z" fill="white"/>
<path d="M51.9098 121.05H53.2498L49.3198 131.86C49.2198 132.12 49.1198 132.34 49.0098 132.51C48.9098 132.69 48.7798 132.82 48.6398 132.93C48.4898 133.03 48.3098 133.11 48.0898 133.15C47.8698 133.19 47.5998 133.22 47.2798 133.22H46.5798V132.01H47.9598L48.6198 130.14L45.3398 121.04H46.6998L48.8098 127L49.2198 128.43H49.2998L49.7798 127L51.8998 121.04L51.9098 121.05Z" fill="white"/>
<path d="M57.4296 129.83L54.3496 121.06H55.7096L57.2396 125.41L58.1896 128.4H58.2696L59.2196 125.41L60.7796 121.06H62.0896L58.9996 129.83H57.4196H57.4296Z" fill="white"/>
<path d="M67.5298 130.03C66.9298 130.03 66.3899 129.92 65.9099 129.71C65.4299 129.5 65.0098 129.19 64.6698 128.78C64.3198 128.38 64.0599 127.9 63.8699 127.33C63.6799 126.77 63.5898 126.14 63.5898 125.43C63.5898 124.72 63.6799 124.11 63.8699 123.54C64.0599 122.97 64.3198 122.49 64.6698 122.09C65.0098 121.69 65.4299 121.38 65.9099 121.16C66.3899 120.94 66.9298 120.84 67.5298 120.84C68.1298 120.84 68.6498 120.95 69.1098 121.16C69.5698 121.37 69.9699 121.67 70.2999 122.05C70.6299 122.43 70.8798 122.88 71.0598 123.4C71.2398 123.92 71.3198 124.49 71.3198 125.11V125.75H65.0098V126.16C65.0098 126.53 65.0698 126.88 65.1898 127.2C65.3098 127.52 65.4798 127.8 65.6998 128.04C65.9198 128.28 66.1898 128.46 66.5198 128.6C66.8398 128.74 67.2099 128.8 67.6199 128.8C68.1699 128.8 68.6598 128.67 69.0698 128.41C69.4798 128.15 69.7998 127.78 70.0298 127.29L70.9998 127.99C70.7198 128.59 70.2698 129.08 69.6698 129.45C69.0698 129.82 68.3598 130.01 67.5298 130.01V130.03ZM67.5298 121.99C67.1598 121.99 66.8198 122.06 66.5098 122.18C66.1998 122.31 65.9398 122.49 65.7198 122.73C65.4998 122.97 65.3298 123.25 65.1998 123.57C65.0698 123.89 65.0098 124.24 65.0098 124.63V124.75H69.8598V124.56C69.8598 123.78 69.6498 123.16 69.2198 122.69C68.7998 122.22 68.2298 121.99 67.5298 121.99Z" fill="white"/>
<path d="M75.5203 129.83C75.0403 129.83 74.6803 129.7 74.4403 129.43C74.2003 129.16 74.0703 128.83 74.0703 128.42V117.25H75.4303V128.62H76.7203V129.83H75.5103H75.5203Z" fill="white"/>
<path d="M82.5208 130.03C81.9308 130.03 81.3908 129.92 80.9008 129.71C80.4108 129.5 80.0008 129.19 79.6508 128.78C79.3008 128.37 79.0308 127.9 78.8408 127.33C78.6508 126.76 78.5508 126.14 78.5508 125.43C78.5508 124.72 78.6508 124.11 78.8408 123.54C79.0308 122.97 79.3008 122.49 79.6508 122.09C80.0008 121.69 80.4108 121.38 80.9008 121.16C81.3908 120.94 81.9308 120.84 82.5208 120.84C83.1108 120.84 83.6408 120.95 84.1308 121.16C84.6108 121.37 85.0308 121.68 85.3808 122.09C85.7308 122.49 86.0008 122.98 86.2008 123.54C86.3908 124.11 86.4908 124.74 86.4908 125.43C86.4908 126.12 86.3908 126.76 86.2008 127.33C86.0108 127.89 85.7408 128.37 85.3808 128.78C85.0308 129.18 84.6108 129.49 84.1308 129.71C83.6508 129.93 83.1108 130.03 82.5208 130.03ZM82.5208 128.82C83.2608 128.82 83.8608 128.59 84.3208 128.14C84.7808 127.69 85.0208 127 85.0208 126.07V124.81C85.0208 123.88 84.7908 123.19 84.3208 122.74C83.8508 122.29 83.2508 122.06 82.5208 122.06C81.7908 122.06 81.1808 122.29 80.7208 122.74C80.2608 123.19 80.0208 123.88 80.0208 124.81V126.07C80.0208 127 80.2508 127.69 80.7208 128.14C81.1908 128.59 81.7908 128.82 82.5208 128.82ZM81.3008 119.86L80.4808 119.49L81.9308 116.6L83.1008 117.16L81.3008 119.86ZM84.0208 119.86L83.2008 119.49L84.6408 116.6L85.8108 117.16L84.0108 119.86H84.0208Z" fill="white"/>
<path d="M89.9201 119C89.6301 119 89.4101 118.93 89.2801 118.79C89.1501 118.65 89.0801 118.46 89.0801 118.24V118.02C89.0801 117.79 89.1501 117.61 89.2801 117.47C89.4101 117.33 89.6201 117.26 89.9201 117.26C90.2201 117.26 90.4301 117.33 90.5601 117.47C90.6901 117.61 90.7601 117.8 90.7601 118.02V118.24C90.7601 118.47 90.6901 118.65 90.5601 118.79C90.4301 118.93 90.2201 119 89.9201 119ZM89.2401 121.06H90.6001V129.83H89.2401V121.06Z" fill="white"/>
<path d="M94.0002 129.83V121.06H95.3602V122.67H95.4402C95.6002 122.25 95.8802 121.88 96.2902 121.55C96.7002 121.22 97.2602 121.06 97.9702 121.06H98.5002V122.42H97.7002C96.9602 122.42 96.3902 122.56 95.9702 122.84C95.5602 123.12 95.3502 123.47 95.3502 123.88V129.83H93.9902H94.0002Z" fill="white"/>
<path d="M103.98 130.03C103.39 130.03 102.85 129.92 102.36 129.71C101.87 129.5 101.46 129.19 101.11 128.78C100.76 128.37 100.49 127.9 100.3 127.33C100.11 126.76 100.01 126.14 100.01 125.43C100.01 124.72 100.11 124.11 100.3 123.54C100.49 122.97 100.76 122.49 101.11 122.09C101.46 121.69 101.87 121.38 102.36 121.16C102.85 120.94 103.39 120.84 103.98 120.84C104.57 120.84 105.1 120.95 105.59 121.16C106.07 121.37 106.49 121.68 106.84 122.09C107.19 122.49 107.46 122.98 107.66 123.54C107.85 124.11 107.95 124.74 107.95 125.43C107.95 126.12 107.85 126.76 107.66 127.33C107.47 127.89 107.2 128.37 106.84 128.78C106.49 129.18 106.07 129.49 105.59 129.71C105.11 129.93 104.57 130.03 103.98 130.03ZM103.98 128.82C104.72 128.82 105.32 128.59 105.78 128.14C106.24 127.69 106.48 127 106.48 126.07V124.81C106.48 123.88 106.25 123.19 105.78 122.74C105.31 122.29 104.71 122.06 103.98 122.06C103.25 122.06 102.64 122.29 102.18 122.74C101.72 123.19 101.48 123.88 101.48 124.81V126.07C101.48 127 101.71 127.69 102.18 128.14C102.65 128.59 103.25 128.82 103.98 128.82Z" fill="white"/>
<path d="M116.3 128.41H116.23C115.7 129.49 114.84 130.03 113.66 130.03C113.12 130.03 112.62 129.92 112.18 129.71C111.74 129.5 111.36 129.19 111.05 128.79C110.74 128.39 110.5 127.91 110.34 127.35C110.17 126.78 110.09 126.15 110.09 125.45C110.09 124.75 110.17 124.11 110.34 123.55C110.5 122.98 110.74 122.5 111.05 122.11C111.36 121.72 111.74 121.41 112.18 121.19C112.62 120.97 113.11 120.87 113.66 120.87C114.27 120.87 114.8 121 115.23 121.27C115.66 121.54 116 121.94 116.23 122.49H116.3V117.27H117.66V129.85H116.3V128.44V128.41ZM114.04 128.82C114.35 128.82 114.64 128.78 114.92 128.7C115.2 128.62 115.44 128.5 115.64 128.35C115.84 128.2 116.01 128.01 116.13 127.79C116.25 127.57 116.31 127.31 116.31 127.03V123.75C116.31 123.51 116.25 123.29 116.13 123.08C116.01 122.87 115.85 122.69 115.64 122.54C115.44 122.39 115.2 122.28 114.92 122.19C114.64 122.11 114.35 122.06 114.04 122.06C113.27 122.06 112.66 122.3 112.22 122.79C111.78 123.27 111.56 123.91 111.56 124.7V126.2C111.56 126.99 111.78 127.62 112.22 128.11C112.66 128.59 113.27 128.84 114.04 128.84V128.82Z" fill="white"/>
<path d="M127.439 129.83C126.929 129.83 126.559 129.69 126.339 129.42C126.119 129.15 125.979 128.81 125.919 128.4H125.839C125.649 128.94 125.329 129.35 124.889 129.62C124.449 129.89 123.919 130.03 123.309 130.03C122.379 130.03 121.659 129.79 121.139 129.32C120.619 128.85 120.369 128.2 120.369 127.38C120.369 126.56 120.669 125.92 121.279 125.48C121.889 125.04 122.829 124.82 124.109 124.82H125.839V123.95C125.839 123.33 125.669 122.85 125.329 122.52C124.989 122.19 124.469 122.03 123.769 122.03C123.239 122.03 122.789 122.15 122.439 122.39C122.079 122.63 121.789 122.94 121.549 123.34L120.729 122.58C120.969 122.1 121.349 121.7 121.869 121.36C122.389 121.03 123.049 120.86 123.839 120.86C124.909 120.86 125.729 121.12 126.319 121.64C126.909 122.16 127.199 122.88 127.199 123.81V128.63H128.199V129.84H127.439V129.83ZM123.529 128.88C123.869 128.88 124.179 128.84 124.459 128.76C124.739 128.68 124.989 128.57 125.189 128.42C125.389 128.27 125.549 128.1 125.669 127.91C125.779 127.72 125.839 127.51 125.839 127.28V125.83H124.039C123.259 125.83 122.689 125.94 122.329 126.17C121.969 126.4 121.789 126.72 121.789 127.16V127.52C121.789 127.95 121.949 128.28 122.259 128.52C122.569 128.76 122.989 128.88 123.529 128.88Z" fill="white"/>
</svg>
