<svg width="26" height="33" viewBox="0 0 26 33" fill="none" xmlns="http://www.w3.org/2000/svg">
<path d="M13 0C18.3787 0 22.75 4.18 22.75 9.35C22.75 16.3586 13 26.7143 13 26.7143C13 26.7143 3.25 16.3586 3.25 9.35C3.25 4.18 7.62125 0 13 0ZM13 6.28571C12.138 6.28571 11.3114 6.61684 10.7019 7.20624C10.0924 7.79564 9.75 8.59503 9.75 9.42857C9.75 10.2621 10.0924 11.0615 10.7019 11.6509C11.3114 12.2403 12.138 12.5714 13 12.5714C13.862 12.5714 14.6886 12.2403 15.2981 11.6509C15.9076 11.0615 16.25 10.2621 16.25 9.42857C16.25 8.59503 15.9076 7.79564 15.2981 7.20624C14.6886 6.61684 13.862 6.28571 13 6.28571ZM26 26.7143C26 30.1871 20.1825 33 13 33C5.8175 33 0 30.1871 0 26.7143C0 24.6871 1.9825 22.88 5.05375 21.7329L6.09375 23.1629C4.33875 23.87 3.25 24.8443 3.25 25.9286C3.25 28.0971 7.62125 29.8571 13 29.8571C18.3787 29.8571 22.75 28.0971 22.75 25.9286C22.75 24.8443 21.6613 23.87 19.9062 23.1629L20.9462 21.7329C24.0175 22.88 26 24.6871 26 26.7143Z" fill="#BF005B"/>
</svg>
