<svg width="60" height="60" viewBox="0 0 60 60" fill="none" xmlns="http://www.w3.org/2000/svg">
<path fill-rule="evenodd" clip-rule="evenodd" d="M59.1169 35.35V35.75C59.1169 40.25 56.6169 45.45 51.6169 51.15C48.1169 55.25 44.6169 58.05 44.4169 58.15L42.9169 59.35L41.5169 58.15C41.3169 58.05 37.8169 55.25 34.2169 51.15C29.3169 45.45 26.7169 40.25 26.7169 35.75V35.35C26.7169 26.45 34.0169 19.15 42.9169 19.15C51.9169 19.15 59.1169 26.45 59.1169 35.35ZM54.4169 35.35C54.4169 29.05 49.3169 23.85 42.9169 23.85C36.6169 23.85 31.4169 29.05 31.4169 35.35V35.75C31.4169 39.05 33.6169 43.25 37.8169 48.05C39.7169 50.25 41.7169 52.15 42.9169 53.25C47.1169 49.55 54.4169 41.75 54.4169 35.75V35.35ZM50.0169 35.55C50.0169 39.45 46.8169 42.65 42.9169 42.65C39.1169 42.65 35.9169 39.45 35.9169 35.55C35.9169 31.75 39.1169 28.55 42.9169 28.55C46.8169 28.55 50.0169 31.75 50.0169 35.55ZM32.7169 59.45H12.0169C8.11693 59.45 4.91694 56.25 4.91694 52.35V26.55L3.91694 27.45C2.91694 28.35 1.41694 28.25 0.616936 27.25C-0.283064 26.25 -0.183067 24.75 0.816933 23.95L27.8169 0.45C28.6169 -0.15 29.6169 -0.15 30.4169 0.45L47.0169 14.85C45.6836 14.5834 44.3169 14.45 42.9169 14.45C41.9836 14.45 41.0503 14.5167 40.1169 14.65C39.8169 14.75 39.5169 14.65 39.3169 14.45L29.8169 6.15001C29.4169 5.85001 28.8169 5.85001 28.4169 6.15001L9.61694 22.45V52.35C9.61694 53.65 10.7169 54.75 12.0169 54.75H30.6169C30.9169 54.75 31.3169 54.85 31.5169 55.15C32.2503 55.95 32.9503 56.6834 33.6169 57.35C34.4169 58.15 33.8169 59.45 32.7169 59.45ZM45.3169 35.55C45.3169 34.35 44.2169 33.25 42.9169 33.25C41.6169 33.25 40.6169 34.35 40.6169 35.55C40.6169 36.85 41.6169 37.95 42.9169 37.95C44.2169 37.95 45.3169 36.85 45.3169 35.55Z" fill="#0dceb5"/>
</svg>
