<svg width="65" height="65" viewBox="0 0 65 65" fill="none" xmlns="http://www.w3.org/2000/svg">
<path fill-rule="evenodd" clip-rule="evenodd" d="M64.6 32.2C64.6 50 49.9 64.6 32.2 64.6C14.2 64.6 0 49.8 0 32.2C0 14.4 14.4 0 32.2 0C49.8 0 64.6 14.2 64.6 32.2ZM60.8 32.2C60.8 16.5 47.9 3.79999 32.2 3.79999C16.5 3.79999 3.7 16.5 3.7 32.2C3.7 48 16.5 60.8 32.2 60.8C47.9 60.8 60.8 48 60.8 32.2Z" fill="#0dceb5"/>
<path fill-rule="evenodd" clip-rule="evenodd" d="M53.2008 32.2004V34.1004C53.2008 38.2004 49.8008 41.6004 45.7008 41.6004C43.1008 41.6004 40.8008 40.4004 39.4008 38.4004C37.6008 40.4004 35.0008 41.6004 32.2008 41.6004C26.9008 41.6004 22.7008 37.4004 22.7008 32.2004C22.7008 27.0004 26.9008 22.7004 32.2008 22.7004C34.3008 22.7004 36.4008 23.4004 38.1008 24.7004V24.6004C38.1008 23.6004 38.9008 22.7004 40.0008 22.7004C41.0008 22.7004 41.9008 23.6004 41.9008 24.6004C41.9008 25.6004 41.9008 33.1004 41.9008 34.1004C41.9008 36.2004 43.6008 37.9004 45.7008 37.9004C47.7008 37.9004 49.4008 36.2004 49.4008 34.1004V32.2004C49.4008 22.8004 41.7008 15.1004 32.2008 15.1004C22.8008 15.1004 15.1008 22.8004 15.1008 32.2004C15.1008 41.7004 22.8008 49.5004 32.2008 49.5004C36.0008 49.5004 39.9008 48.2004 42.8008 46.0004C43.6008 45.3004 44.8008 45.5004 45.4008 46.3004C46.1008 47.1004 45.9008 48.3004 45.1008 49.0004C41.5008 51.7004 36.8008 53.3004 32.2008 53.3004C20.7008 53.3004 11.3008 43.7004 11.3008 32.2004C11.3008 20.7004 20.7008 11.4004 32.2008 11.4004C43.7008 11.4004 53.2008 20.7004 53.2008 32.2004ZM38.1008 32.2004C38.1008 29.1004 35.4008 26.5004 32.2008 26.5004C29.0008 26.5004 26.5008 29.1004 26.5008 32.2004C26.5008 35.3004 29.0008 37.9004 32.2008 37.9004C35.4008 37.9004 38.1008 35.3004 38.1008 32.2004Z" fill="#0dceb5"/>
</svg>
