<svg width="66" height="67" viewBox="0 0 66 67" fill="none" xmlns="http://www.w3.org/2000/svg">
<path d="M32.6 0C14.6 0 0 14.7 0 32.7C0 39.7 2.8 46 4 48.4C4.6 49.5 6.00001 50 7.10001 49.4C8.20001 48.8 8.70001 47.4 8.10001 46.3C7.00001 44.2 4.5 38.7 4.5 32.7C4.5 17.2 17.1 4.59998 32.6 4.59998C48.1 4.59998 60.7 17.2 60.7 32.7C60.7 48.1 48.1 60.7 32.6 60.7C26.5 60.7 21.7 58.6 19.9 57.7C19.4 57.5 18.8 57.4 18.2 57.6L3.90001 62.2C2.70001 62.5 2.1 63.8 2.5 65C2.8 66 3.70001 66.6 4.60001 66.6C4.86667 66.6 5.1 66.5667 5.3 66.5L18.7 62.2C21.5 63.5 26.5 65.3 32.6 65.3C50.6 65.3 65.2 50.6 65.2 32.7C65.2 14.7 50.6 0 32.6 0Z" fill="#0dceb5"/>
<path d="M24.0999 27.1001C23.1999 27.9001 22.9999 29.3001 23.6999 30.3001C24.4999 31.3001 25.8999 31.4001 26.8999 30.7001C27.5999 30.2001 29.3999 28.7001 29.1999 26.2001C28.9999 24.7001 27.4999 22.6001 26.2999 21.2001C24.5665 19.0001 23.0999 17.7335 21.8999 17.4001C20.8332 17.0668 19.7332 17.1001 18.5999 17.5001C16.2999 18.5001 14.5999 20.0001 13.8999 22.0001C13.0999 23.9001 13.1999 26.0001 14.2999 28.2001C16.5999 33.2001 19.7999 37.5001 23.6999 41.0001C27.5999 44.5001 32.2999 47.2001 37.4999 49.0001C38.4999 49.3335 39.4665 49.5001 40.3999 49.5001C41.5999 49.5001 42.6999 49.2334 43.6999 48.7001C45.5999 47.7001 46.8999 45.9001 47.5999 43.5001C47.9332 42.3001 47.8665 41.2001 47.3999 40.2001C46.8665 39.0668 45.4332 37.7334 43.0999 36.2001C41.4999 35.1001 39.2999 33.9001 37.7999 33.9001C35.1999 33.9001 33.9999 35.9001 33.5999 36.7001C32.8999 37.7001 33.2999 39.1001 34.3999 39.8001C35.3999 40.4001 36.7999 40.1001 37.4999 39.0001C37.5999 38.7001 37.7999 38.6001 37.7999 38.5001C39.0999 38.8001 42.4999 41.1001 43.1999 42.0001C43.2665 42.0668 43.2665 42.1668 43.1999 42.3001C42.9999 43.1001 42.4999 44.2001 41.5999 44.7001C40.6999 45.1001 39.6999 44.9001 38.9999 44.7001C34.2999 43.1001 30.1999 40.7001 26.6999 37.6001C23.2999 34.5001 20.4999 30.7001 18.3999 26.2001C17.9999 25.5001 17.6999 24.5001 18.0999 23.6001C18.4999 22.6001 19.4999 22.1001 20.2999 21.7001C20.3665 21.7001 20.4332 21.7001 20.4999 21.7001C21.4999 22.3001 24.0999 25.4001 24.5999 26.7001C24.5999 26.8001 24.3999 26.9001 24.0999 27.1001Z" fill="#0dceb5"/>
</svg>
