<?xml version="1.0" encoding="UTF-8"?>
<svg id="Layer_1" data-name="Layer 1" xmlns="http://www.w3.org/2000/svg" viewBox="0 0 400 400">
  <defs>
    <style>
      .cls-1 {
        fill: #00a9b4;
      }

      .cls-2 {
        fill: #303030;
      }
    </style>
  </defs>
  <g>
    <path class="cls-2" d="m208.37,204.89c-45.26,0-82.08-36.82-82.08-82.08s36.82-82.07,82.08-82.07,82.08,36.82,82.08,82.07-36.82,82.08-82.08,82.08Zm0-153.14c-39.18,0-71.06,31.88-71.06,71.06s31.88,71.06,71.06,71.06,71.06-31.88,71.06-71.06-31.88-71.06-71.06-71.06Z"/>
    <g>
      <path class="cls-2" d="m206.05,163.19c-8.65,0-16.21-4.17-20.06-11.38-1.43-2.68-.42-6.02,2.27-7.45,2.67-1.44,6.02-.42,7.45,2.27,2.79,5.23,9.05,6.1,13.56,5.24,4.64-.88,10.31-4.04,11.02-10.07.92-7.82-4.22-11.11-13.39-16.24-8.44-4.72-18.93-10.6-18.65-23.73.19-8.91,5.91-16.56,14.56-19.47,8.68-2.93,17.88-.29,23.44,6.71,1.89,2.39,1.49,5.85-.89,7.74-2.38,1.89-5.85,1.5-7.74-.89-3.2-4.03-7.93-4.25-11.3-3.12-3.34,1.12-6.95,4.15-7.06,9.26-.13,6.2,4.86,9.31,13.02,13.88,8.76,4.91,20.76,11.64,18.94,27.14-1.15,9.84-8.97,17.54-19.92,19.6-1.78.34-3.54.5-5.26.5Z"/>
      <path class="cls-2" d="m208.37,92.31c-3.04,0-5.51-2.47-5.51-5.51v-12.15c0-3.04,2.47-5.51,5.51-5.51s5.51,2.47,5.51,5.51v12.15c0,3.04-2.47,5.51-5.51,5.51Z"/>
      <path class="cls-2" d="m208.37,176.49c-3.04,0-5.51-2.47-5.51-5.51v-13.31c0-3.04,2.47-5.51,5.51-5.51s5.51,2.47,5.51,5.51v13.31c0,3.04-2.47,5.51-5.51,5.51Z"/>
    </g>
  </g>
  <g>
    <g>
      <path class="cls-1" d="m169.8,326.92c-1.41,0-2.82-.54-3.89-1.61l-45.15-45.15c-1.03-1.03-1.61-2.44-1.61-3.89s.58-2.86,1.61-3.89l32.04-32.05c8.82-8.83,20.54-13.7,33.02-13.7h16.32c3.04,0,5.51,2.47,5.51,5.51s-2.47,5.51-5.51,5.51h-16.32c-9.39,0-18.59,3.81-25.22,10.46l-28.15,28.16,37.36,37.36,10.02-10.02c6.04-6.04,14.07-9.37,22.6-9.37h54.9c4.92,0,9.54-1.92,13.02-5.39l72.41-72.4c1.38-1.38,2.13-3.18,2.13-5.07s-.75-3.7-2.1-5.04c-1.2-1.2-2.74-1.97-4.87-2.42-5.34-1.16-11.34.78-15.6,5.05l-55.52,55.51c-1.03,1.03-2.44,1.61-3.9,1.61h-32.3c-3.04,0-5.51-2.47-5.51-5.51s2.47-5.51,5.51-5.51h30.02l53.9-53.9c6.99-6.99,16.59-9.99,25.71-8.03,4.18.9,7.65,2.71,10.32,5.38,3.45,3.39,5.36,7.97,5.36,12.85s-1.9,9.4-5.36,12.85l-72.4,72.4c-5.56,5.56-12.94,8.62-20.81,8.62h-54.9c-5.59,0-10.86,2.18-14.82,6.14l-13.91,13.91c-1.08,1.08-2.48,1.61-3.9,1.61Z"/>
      <path class="cls-1" d="m256.88,265.77h-26.6c-3.04,0-5.51-2.47-5.51-5.51s2.47-5.51,5.51-5.51h26.6c2.3,0,4.43-.89,6.02-2.49,1.65-1.65,2.54-3.8,2.54-6.07,0-4.72-3.84-8.56-8.56-8.56h-54.74c-3.04,0-5.51-2.47-5.51-5.51s2.47-5.51,5.51-5.51h54.74c10.79,0,19.57,8.78,19.57,19.58,0,5.22-2.04,10.13-5.74,13.83-3.64,3.69-8.57,5.74-13.83,5.74Z"/>
      <path class="cls-2" d="m155.73,359.26c-1.41,0-2.82-.54-3.89-1.62l-64.33-64.33c-1.03-1.03-1.61-2.43-1.61-3.9s.58-2.86,1.62-3.89l23.2-23.17c2.15-2.14,5.62-2.15,7.78,0l64.34,64.3c2.15,2.15,2.15,5.64,0,7.79l-23.2,23.2c-1.07,1.08-2.48,1.62-3.89,1.62Zm-56.53-69.83l56.53,56.53,15.42-15.42-56.53-56.51-15.42,15.39Z"/>
    </g>
    <path class="cls-2" d="m49.61,357.56c-1.41,0-2.83-.54-3.9-1.62-2.15-2.15-2.14-5.64.01-7.79l51.82-51.62c2.16-2.15,5.64-2.14,7.79.02s2.14,5.64-.02,7.79l-51.82,51.62c-1.08,1.07-2.48,1.61-3.89,1.61Z"/>
  </g>
</svg>