<?xml version="1.0" encoding="UTF-8"?>
<svg id="Layer_1" data-name="Layer 1" xmlns="http://www.w3.org/2000/svg" viewBox="0 0 400 400">
  <defs>
    <style>
      .cls-1 {
        fill: #00a9b4;
      }

      .cls-2 {
        fill: #303030;
      }
    </style>
  </defs>
  <path class="cls-1" d="m343.29,143.71h-31.39c-3.04,0-5.51-2.47-5.51-5.51s2.47-5.51,5.51-5.51h31.39c3.04,0,5.51,2.47,5.51,5.51s-2.47,5.51-5.51,5.51Z"/>
  <path class="cls-1" d="m341.27,304.73h-27.3c-3.04,0-5.51-2.47-5.51-5.51s2.47-5.51,5.51-5.51h27.3c3.04,0,5.51,2.47,5.51,5.51s-2.47,5.51-5.51,5.51Z"/>
  <path class="cls-2" d="m269.28,359.31H64.94c-7.57,0-13.74-6.16-13.74-13.73V98.56c0-7.57,6.16-13.73,13.74-13.73h57.03c3.04,0,5.51,2.47,5.51,5.51v14.54h79.32v-14.54c0-3.04,2.47-5.51,5.51-5.51h56.99c7.57,0,13.73,6.16,13.73,13.73v247.01c0,7.57-6.16,13.73-13.73,13.73ZM64.94,95.85c-1.5,0-2.72,1.22-2.72,2.71v247.01c0,1.5,1.22,2.72,2.72,2.72h204.34c1.5,0,2.72-1.22,2.72-2.72V98.56c0-1.5-1.22-2.71-2.72-2.71h-51.48v14.54c0,3.04-2.47,5.51-5.51,5.51h-90.33c-3.04,0-5.51-2.47-5.51-5.51v-14.54h-51.52Z"/>
  <path class="cls-2" d="m212.3,115.89h-90.33c-3.04,0-5.51-2.47-5.51-5.51v-45.86c0-3.04,2.47-5.51,5.51-5.51h20.3c2.88-10.61,12.54-18.32,23.91-18.32h1.43c11.37,0,21.03,7.71,23.91,18.32h20.78c3.04,0,5.51,2.47,5.51,5.51v45.86c0,3.04-2.47,5.51-5.51,5.51Zm-84.82-11.02h79.32v-34.85h-19.94c-2.93,0-5.34-2.29-5.5-5.21-.4-7.35-6.43-13.11-13.74-13.11h-1.43c-7.31,0-13.34,5.76-13.74,13.11-.16,2.92-2.57,5.21-5.5,5.21h-19.46v34.85Z"/>
  <path class="cls-2" d="m256.14,152.59H83.44c-3.04,0-5.51-2.47-5.51-5.51s2.47-5.51,5.51-5.51h172.7c3.04,0,5.51,2.47,5.51,5.51s-2.47,5.51-5.51,5.51Z"/>
  <path class="cls-2" d="m256.14,184.51H83.44c-3.04,0-5.51-2.47-5.51-5.51s2.47-5.51,5.51-5.51h172.7c3.04,0,5.51,2.47,5.51,5.51s-2.47,5.51-5.51,5.51Z"/>
  <path class="cls-2" d="m145.95,216.44h-62.52c-3.04,0-5.51-2.47-5.51-5.51s2.47-5.51,5.51-5.51h62.52c3.04,0,5.51,2.47,5.51,5.51s-2.47,5.51-5.51,5.51Z"/>
  <path class="cls-2" d="m327.59,352.16c-2.94,0-5.52-1.89-6.4-4.7l-10.98-35.15c-2.54-8.13-3.83-16.56-3.83-25.08V106.02c0-11.69,9.51-21.2,21.2-21.2s21.2,9.51,21.2,21.2v181.21c0,8.51-1.29,16.95-3.83,25.08l-10.98,35.14c-.87,2.81-3.44,4.7-6.39,4.7h-.01Zm0-256.33c-5.62,0-10.19,4.57-10.19,10.19v181.21c0,7.4,1.12,14.73,3.33,21.79l6.86,21.97,6.86-21.97h0c2.21-7.07,3.33-14.4,3.33-21.79V106.02c0-5.62-4.57-10.19-10.19-10.19Z"/>
  <g>
    <path class="cls-1" d="m208.73,300.59c-1.67,0-3.26-.76-4.3-2.07l-19.56-24.44c-1.9-2.38-1.51-5.84.86-7.74,2.38-1.9,5.85-1.52,7.74.86l15.2,19,38.9-49.91c1.87-2.4,5.34-2.83,7.73-.96,2.4,1.87,2.83,5.33.96,7.73l-43.19,55.41c-1.03,1.33-2.62,2.11-4.31,2.12h-.04Z"/>
    <path class="cls-2" d="m207.1,324.22c-27.3,0-49.51-22.21-49.51-49.51s22.21-49.51,49.51-49.51c7.31,0,14.35,1.56,20.92,4.62,2.75,1.29,3.95,4.56,2.66,7.32-1.29,2.75-4.56,3.95-7.32,2.66-5.1-2.38-10.57-3.59-16.26-3.59-21.23,0-38.49,17.27-38.49,38.49s17.27,38.5,38.49,38.5,38.5-17.27,38.5-38.5c0-3.04,2.47-5.51,5.51-5.51s5.51,2.47,5.51,5.51c0,27.3-22.21,49.51-49.51,49.51Z"/>
  </g>
</svg>