<?xml version="1.0" encoding="UTF-8"?>
<svg id="Layer_1" data-name="Layer 1" xmlns="http://www.w3.org/2000/svg" viewBox="0 0 400 400">
  <defs>
    <style>
      .cls-1 {
        fill: #00a9b4;
      }

      .cls-2 {
        fill: #303030;
      }
    </style>
  </defs>
  <g>
    <g>
      <g>
        <path class="cls-1" d="m212.43,188.02c-6.62,0-12.42-3.22-15.4-8.8-1.43-2.68-.42-6.02,2.27-7.45,2.67-1.44,6.02-.42,7.45,2.27,1.51,2.83,5.04,3.26,7.61,2.78,2.67-.5,5.91-2.25,6.3-5.53.47-3.98-1.49-5.71-8.45-9.61-5.92-3.32-14.02-7.86-13.8-17.98.15-6.91,4.56-12.82,11.25-15.07,6.71-2.26,13.83-.21,18.13,5.21,1.89,2.38,1.49,5.84-.89,7.74-2.38,1.89-5.85,1.49-7.74-.89-2.11-2.66-5.12-1.91-5.99-1.62-.86.29-3.68,1.5-3.75,4.87-.07,3.19,2.31,4.85,8.17,8.13,6.13,3.44,15.4,8.63,14.01,20.5-.88,7.46-6.98,13.52-15.19,15.07-1.35.25-2.68.38-3.97.38Z"/>
        <path class="cls-1" d="m214.06,138.81c-3.04,0-5.51-2.47-5.51-5.51v-8.43c0-3.04,2.47-5.51,5.51-5.51s5.51,2.47,5.51,5.51v8.43c0,3.04-2.47,5.51-5.51,5.51Z"/>
        <path class="cls-1" d="m214.06,197.25c-3.04,0-5.51-2.47-5.51-5.51v-9.24c0-3.04,2.47-5.51,5.51-5.51s5.51,2.47,5.51,5.51v9.24c0,3.04-2.47,5.51-5.51,5.51Z"/>
      </g>
      <path class="cls-1" d="m214.06,216.96c-32.35,0-58.66-26.32-58.66-58.67s26.32-58.66,58.66-58.66,58.66,26.32,58.66,58.66-26.32,58.67-58.66,58.67Zm0-106.31c-26.27,0-47.65,21.38-47.65,47.64s21.37,47.65,47.65,47.65,47.65-21.38,47.65-47.65-21.38-47.64-47.65-47.64Z"/>
    </g>
    <path class="cls-2" d="m214.06,90.51c-3.04,0-5.51-2.47-5.51-5.51v-17.27c0-3.04,2.47-5.51,5.51-5.51s5.51,2.47,5.51,5.51v17.27c0,3.04-2.47,5.51-5.51,5.51Z"/>
    <path class="cls-2" d="m214.06,250.22c-3.04,0-5.51-2.47-5.51-5.51v-17.27c0-3.04,2.47-5.51,5.51-5.51s5.51,2.47,5.51,5.51v17.27c0,3.04-2.47,5.51-5.51,5.51Z"/>
    <path class="cls-2" d="m264.42,111.37c-1.41,0-2.82-.54-3.89-1.62-2.15-2.15-2.15-5.64,0-7.79l12.21-12.21c2.15-2.15,5.64-2.15,7.79,0,2.15,2.15,2.15,5.64,0,7.79l-12.21,12.21c-1.08,1.08-2.49,1.62-3.9,1.62Z"/>
    <path class="cls-2" d="m151.49,224.3c-1.41,0-2.82-.54-3.89-1.61-2.15-2.15-2.15-5.64,0-7.79l12.21-12.21c2.15-2.15,5.64-2.15,7.79,0s2.15,5.64,0,7.79l-12.21,12.21c-1.08,1.08-2.49,1.61-3.89,1.61Z"/>
    <path class="cls-2" d="m276.63,224.3c-1.41,0-2.82-.54-3.89-1.61l-12.21-12.21c-2.15-2.15-2.15-5.64,0-7.79,2.15-2.15,5.64-2.15,7.79,0l12.21,12.21c2.15,2.15,2.15,5.64,0,7.79-1.08,1.08-2.49,1.61-3.9,1.61Z"/>
    <path class="cls-2" d="m163.7,111.37c-1.41,0-2.82-.54-3.89-1.62l-12.21-12.21c-2.15-2.15-2.15-5.64,0-7.79,2.15-2.15,5.64-2.15,7.79,0l12.21,12.21c2.15,2.15,2.15,5.64,0,7.79-1.08,1.08-2.49,1.62-3.89,1.62Z"/>
    <path class="cls-2" d="m302.55,161.73h-17.27c-3.04,0-5.51-2.47-5.51-5.51s2.47-5.51,5.51-5.51h17.27c3.04,0,5.51,2.47,5.51,5.51s-2.47,5.51-5.51,5.51Z"/>
    <path class="cls-2" d="m142.84,161.73h-17.27c-3.04,0-5.51-2.47-5.51-5.51s2.47-5.51,5.51-5.51h17.27c3.04,0,5.51,2.47,5.51,5.51s-2.47,5.51-5.51,5.51Z"/>
  </g>
  <path class="cls-2" d="m270.62,359.03h-94.88c-9.79,0-17.75-7.47-17.75-16.65v-32.76h-24.87c-12.96-.01-21.28-2.68-27.02-8.64-6.2-6.45-8.59-15.91-8-31.65.5-13.05.25-17.3-.26-25.77l-.07-1.21-8.35-.15c-7.69-.22-14.11-3.86-17.68-9.99-3.54-6.08-3.6-13.57-.17-20.04,13.68-25.71,19.42-36.51,22.7-42.74,2.2-4.16,3.14-8.76,2.72-13.32-.24-2.65-.32-5.14-.36-7.45-.56-30.98,8.96-57.36,27.55-76.29,19.87-20.24,49.63-31.39,83.81-31.39,90.66,0,122.97,57.94,122.97,112.17,0,22.69-6.77,44.54-19.56,63.21-15.11,22.03-23.1,48.29-23.1,75.92v35.82c.04.4.07.81.07,1.23v13.06c0,9.18-7.96,16.65-17.75,16.65ZM207.99,51.99c-31.2,0-58.17,9.98-75.95,28.09-16.47,16.78-24.91,40.41-24.4,68.37.04,2.09.1,4.35.32,6.64.62,6.69-.75,13.42-3.94,19.47-3.29,6.23-9.03,17.04-22.72,42.77-1.63,3.08-1.65,6.57-.04,9.33,1.63,2.8,4.62,4.4,8.41,4.51l18.52.34.64,11.36c.53,8.85.8,13.28.28,26.87-.47,12.29,1.05,19.56,4.93,23.59,3.49,3.63,9.38,5.25,19.08,5.26h35.88v43.78c0,3.11,3.02,5.64,6.73,5.64h94.88c3.71,0,6.73-2.53,6.73-5.64l-.07-50.1c0-29.87,8.66-58.28,25.03-82.15,11.54-16.82,17.64-36.52,17.64-56.98,0-48.9-29.41-101.16-111.95-101.16Z"/>
</svg>