<?xml version="1.0" encoding="UTF-8"?>
<svg id="Layer_1" data-name="Layer 1" xmlns="http://www.w3.org/2000/svg" viewBox="0 0 400 400">
  <defs>
    <style>
      .cls-1 {
        fill: #00a9b4;
      }

      .cls-2 {
        fill: #303030;
      }
    </style>
  </defs>
  <path class="cls-2" d="m310.44,359.32H89.56c-3.04,0-5.51-2.46-5.51-5.51V90.3c0-3.04,2.47-5.51,5.51-5.51h65.26c3.04,0,5.51,2.47,5.51,5.51v14.58h79.33v-14.58c0-3.04,2.47-5.51,5.51-5.51h65.26c3.04,0,5.51,2.47,5.51,5.51v263.51c0,3.04-2.47,5.51-5.51,5.51Zm-215.37-11.02h209.86V95.81h-54.24v14.58c0,3.04-2.47,5.51-5.51,5.51h-90.35c-3.04,0-5.51-2.47-5.51-5.51v-14.58h-54.25v252.5Z"/>
  <path class="cls-2" d="m245.17,115.9h-90.35c-3.04,0-5.51-2.47-5.51-5.51v-45.91c0-3.04,2.47-5.51,5.51-5.51h20.31c2.88-10.59,12.54-18.29,23.91-18.29h1.43c11.35,0,21.02,7.7,23.93,18.29h20.77c3.04,0,5.51,2.47,5.51,5.51v45.91c0,3.04-2.47,5.51-5.51,5.51Zm-84.84-11.02h79.33v-34.89h-19.91c-2.92,0-5.33-2.28-5.5-5.19-.43-7.35-6.48-13.1-13.78-13.1h-1.43c-7.31,0-13.35,5.74-13.74,13.08-.16,2.92-2.57,5.21-5.5,5.21h-19.47v34.89Z"/>
  <path class="cls-2" d="m197.98,174.62h-66.98c-3.04,0-5.51-2.47-5.51-5.51s2.47-5.51,5.51-5.51h66.98c3.04,0,5.51,2.47,5.51,5.51s-2.47,5.51-5.51,5.51Z"/>
  <path class="cls-2" d="m197.98,308.27h-66.98c-3.04,0-5.51-2.47-5.51-5.51s2.47-5.51,5.51-5.51h66.98c3.04,0,5.51,2.47,5.51,5.51s-2.47,5.51-5.51,5.51Z"/>
  <path class="cls-1" d="m254.33,183.07c-1.67,0-3.26-.76-4.3-2.07l-10.7-13.37c-1.9-2.38-1.51-5.84.86-7.74,2.38-1.9,5.85-1.52,7.74.86l6.27,7.83,13.49-17.92c1.82-2.44,5.28-2.92,7.71-1.09,2.43,1.83,2.92,5.28,1.09,7.71l-17.76,23.59c-1.02,1.36-2.62,2.17-4.32,2.2h-.08Z"/>
  <path class="cls-2" d="m197.98,218.23h-66.98c-3.04,0-5.51-2.47-5.51-5.51s2.47-5.51,5.51-5.51h66.98c3.04,0,5.51,2.47,5.51,5.51s-2.47,5.51-5.51,5.51Z"/>
  <path class="cls-1" d="m254.33,226.68c-1.67,0-3.26-.76-4.3-2.07l-10.7-13.37c-1.9-2.38-1.51-5.84.86-7.74,2.38-1.9,5.85-1.51,7.74.86l6.27,7.83,13.49-17.92c1.82-2.44,5.28-2.92,7.71-1.09,2.43,1.83,2.92,5.28,1.09,7.71l-17.76,23.59c-1.02,1.36-2.62,2.17-4.32,2.2h-.08Z"/>
  <path class="cls-2" d="m197.98,261.85h-66.98c-3.04,0-5.51-2.47-5.51-5.51s2.47-5.51,5.51-5.51h66.98c3.04,0,5.51,2.47,5.51,5.51s-2.47,5.51-5.51,5.51Z"/>
  <path class="cls-1" d="m254.33,270.29c-1.67,0-3.26-.76-4.3-2.07l-10.7-13.38c-1.9-2.37-1.51-5.84.86-7.74,2.38-1.9,5.85-1.52,7.74.86l6.27,7.83,13.49-17.92c1.82-2.44,5.28-2.92,7.71-1.09,2.43,1.83,2.92,5.28,1.09,7.71l-17.76,23.59c-1.02,1.36-2.62,2.17-4.32,2.2h-.08Z"/>
  <g>
    <path class="cls-2" d="m245.84,321.27c-1.41,0-2.82-.54-3.9-1.62-2.15-2.15-2.15-5.64,0-7.79l18.79-18.79c2.15-2.15,5.64-2.15,7.79,0,2.15,2.15,2.15,5.64,0,7.79l-18.79,18.79c-1.08,1.08-2.49,1.62-3.89,1.62Z"/>
    <path class="cls-2" d="m264.63,321.27c-1.41,0-2.82-.54-3.89-1.62l-18.79-18.79c-2.15-2.15-2.15-5.64,0-7.79,2.15-2.15,5.64-2.15,7.79,0l18.79,18.79c2.15,2.15,2.15,5.64,0,7.79-1.08,1.08-2.48,1.62-3.9,1.62Z"/>
  </g>
</svg>