<?xml version="1.0" encoding="UTF-8"?>
<svg id="Layer_1" data-name="Layer 1" xmlns="http://www.w3.org/2000/svg" viewBox="0 0 400 400">
  <defs>
    <style>
      .cls-1 {
        fill: #00a9b4;
      }

      .cls-2 {
        fill: #303030;
      }
    </style>
  </defs>
  <g>
    <path class="cls-2" d="m61.5,359.15c-3.03,0-5.49-2.46-5.49-5.49V80.77c0-3.04,2.46-5.49,5.49-5.49s5.49,2.46,5.49,5.49v272.89c0,3.03-2.46,5.49-5.49,5.49Z"/>
    <path class="cls-2" d="m95.94,120.7c-3.04,0-5.49-2.46-5.49-5.49s2.46-5.49,5.49-5.49c15.96,0,28.94-12.98,28.94-28.94s-12.98-28.94-28.94-28.94-28.94,12.98-28.94,28.94c0,3.03-2.46,5.49-5.49,5.49s-5.49-2.46-5.49-5.49c0-22.02,17.91-39.93,39.93-39.93s39.92,17.91,39.92,39.93-17.91,39.93-39.92,39.93Z"/>
    <path class="cls-2" d="m304.07,120.7c-3.04,0-5.49-2.46-5.49-5.49s2.46-5.49,5.49-5.49c15.96,0,28.94-12.98,28.94-28.94s-12.98-28.94-28.94-28.94c-3.04,0-5.49-2.46-5.49-5.49s2.46-5.49,5.49-5.49c22.01,0,39.92,17.91,39.92,39.93s-17.91,39.93-39.92,39.93Z"/>
    <path class="cls-2" d="m304.07,51.83H95.94c-3.04,0-5.49-2.46-5.49-5.49s2.46-5.49,5.49-5.49h208.13c3.03,0,5.49,2.46,5.49,5.49s-2.46,5.49-5.49,5.49Z"/>
    <path class="cls-2" d="m304.07,120.7H95.94c-3.04,0-5.49-2.46-5.49-5.49s2.46-5.49,5.49-5.49h208.13c3.03,0,5.49,2.46,5.49,5.49s-2.46,5.49-5.49,5.49Z"/>
    <path class="cls-2" d="m284.58,359.15c-3.04,0-5.49-2.46-5.49-5.49V115.2c0-3.03,2.46-5.49,5.49-5.49s5.49,2.46,5.49,5.49v238.46c0,3.03-2.46,5.49-5.49,5.49Z"/>
    <path class="cls-2" d="m284.58,359.15H61.5c-3.03,0-5.49-2.46-5.49-5.49s2.46-5.49,5.49-5.49h223.08c3.03,0,5.49,2.46,5.49,5.49s-2.46,5.49-5.49,5.49Z"/>
  </g>
  <g>
    <path class="cls-1" d="m176.58,310.22c-2.35,0-4.7-.55-6.79-1.59-39.38-19.53-53.32-53.46-49.74-121,.24-4.51,3.49-8.32,7.92-9.26,17.09-3.66,28.26-6.46,39.18-14.56,2.61-1.94,5.7-3.08,8.95-3.3.03,0,.06,0,.09,0,.18-.02.35,0,.52-.02.11,0,.23,0,.35.02h0c3.47.28,6.48,1.42,9.02,3.31,10.92,8.1,22.09,10.9,39.18,14.56,4.42.94,7.67,4.75,7.91,9.26h0c3.58,67.55-10.36,101.47-49.74,121-2.05,1.02-4.35,1.57-6.65,1.58-.07,0-.14,0-.21,0Zm0-10.99h.16c.64-.01,1.25-.16,1.81-.44,35.03-17.37,46.91-47.17,43.69-109.83-17.63-3.79-30.2-7.05-42.71-16.33-.89-.66-1.94-1.06-3.05-1.15-.82.09-1.89.49-2.78,1.15-12.51,9.28-25.09,12.55-42.71,16.33-3.22,62.65,8.66,92.46,43.69,109.83.59.29,1.22.44,1.89.44h.02Zm45.62-111.02h0Z"/>
    <path class="cls-2" d="m177.22,251.87c-1.75,0-3.4-.84-4.43-2.25l-17.36-23.71c-1.79-2.45-1.26-5.88,1.19-7.68,2.44-1.79,5.89-1.26,7.68,1.19l12.85,17.56,20.19-28.5c1.76-2.47,5.18-3.06,7.66-1.31,2.48,1.75,3.06,5.18,1.31,7.66l-24.6,34.72c-1.02,1.44-2.67,2.3-4.44,2.32h-.04Z"/>
  </g>
</svg>