<?xml version="1.0" encoding="UTF-8"?>
<svg id="Layer_1" data-name="Layer 1" xmlns="http://www.w3.org/2000/svg" viewBox="0 0 400 400">
  <defs>
    <style>
      .cls-1 {
        fill: #00a9b4;
      }

      .cls-2 {
        fill: #303030;
      }
    </style>
  </defs>
  <g>
    <path class="cls-1" d="m199.85,277.37c-.46,0-.91,0-1.35-.02-19.18-.28-37.62-7.74-51.74-20.99-15.59-14.57-24.53-35.2-24.53-56.59s8.1-40.28,22.79-54.92c14.33-14.31,33.39-22.36,53.65-22.66.53-.03,1.65-.03,2.52,0,20.1.29,39.15,8.34,53.47,22.66,14.69,14.63,22.79,34.14,22.79,54.91s-8.94,41.98-24.51,56.59c-.09.08-.18.16-.27.24-14.08,13.11-32.4,20.48-51.65,20.76-.26.02-.72.02-1.18.02Zm0-11.02c.29,0,.57,0,.84,0,16.78-.25,32.58-6.64,44.69-18.02.08-.08.17-.15.26-.23,13.22-12.52,20.8-30.11,20.8-48.33s-6.94-34.56-19.55-47.11c-12.29-12.29-28.63-19.19-46.02-19.45-.44-.02-.72-.02-1.01-.02-.29,0-.57,0-.84.01-17.55.26-33.9,7.17-46.2,19.45-12.61,12.56-19.56,29.29-19.56,47.12s7.47,35.86,21.04,48.54c12.13,11.38,27.94,17.78,44.54,18.02.44.02.72.02,1.01.02Zm49.32-14.01h.03-.03Z"/>
    <path class="cls-1" d="m199.85,277.37c-.46,0-.91,0-1.35-.02-14.45-.63-27.78-11.36-36.56-29.44-6.6-13.53-10.24-30.63-10.24-48.14s3.17-32.56,9.16-45.84c8.76-19.5,22.48-31.07,37.64-31.74.85-.04,1.81-.04,2.68,0,15.16.67,28.88,12.25,37.62,31.77,5.99,13.27,9.16,29.11,9.16,45.81s-3.64,34.6-10.24,48.15c-8.78,18.08-22.1,28.8-36.55,29.43-.42.02-.88.02-1.33.02Zm0-11.02c.29,0,.57,0,.84,0,10.29-.45,20.18-8.92,27.13-23.25,5.89-12.08,9.13-27.46,9.13-43.32s-2.83-29.43-8.18-41.29c-6.99-15.59-17.22-24.8-28.07-25.28-.28-.01-.56,0-.85-.01-.29,0-.57,0-.84.01-10.86.48-21.09,9.68-28.09,25.25-5.36,11.88-8.19,26.16-8.19,41.32s3.24,31.25,9.13,43.31c6.96,14.33,16.85,22.81,27.14,23.26.28.01.56.01.85,0Z"/>
    <path class="cls-1" d="m199.85,166.72c-12.38,0-24.7-1.82-35.62-5.28-6.68-2.1-12.78-4.78-18.13-7.96-1.46-.87-2.44-2.36-2.65-4.05-.21-1.69.37-3.38,1.57-4.58,14.34-14.32,33.39-22.37,53.65-22.67.53-.03,1.65-.03,2.52,0,20.1.29,39.15,8.34,53.47,22.66,1.2,1.2,1.78,2.89,1.57,4.58-.21,1.69-1.19,3.18-2.65,4.05-5.35,3.18-11.45,5.87-18.13,7.98-10.92,3.44-23.23,5.26-35.6,5.26Zm-41.31-19.19c2.83,1.27,5.83,2.41,9,3.4,19.71,6.23,44.85,6.23,64.59.02,3.17-1,6.18-2.15,9.01-3.42-11.43-9.07-25.48-14.12-40.28-14.33-.44-.02-.73-.01-1.01-.02-.29,0-.57,0-.84.01-14.95.22-29.02,5.26-40.46,14.34Z"/>
    <path class="cls-1" d="m199.84,277.37c-.46,0-.93,0-1.37-.02-20.07-.29-39.12-8.34-53.44-22.66-1.2-1.2-1.78-2.89-1.57-4.58.21-1.69,1.19-3.18,2.65-4.05,5.34-3.18,11.45-5.87,18.13-7.98,21.86-6.89,49.39-6.88,71.22.02,6.68,2.1,12.78,4.78,18.13,7.96,1.46.87,2.44,2.36,2.65,4.05.21,1.69-.37,3.38-1.57,4.58-14.34,14.32-33.39,22.37-53.65,22.66-.25.02-.71.02-1.18.02Zm0-11.02c.28,0,.56,0,.81,0,14.97-.22,29.05-5.26,40.49-14.34-2.82-1.27-5.83-2.4-9-3.4-19.72-6.23-44.86-6.23-64.59-.02-3.17,1-6.18,2.15-9.01,3.42,11.43,9.08,25.47,14.12,40.28,14.33.46.02.74.02,1.01.02Z"/>
    <path class="cls-1" d="m199.85,277.37c-3.04,0-5.51-2.47-5.51-5.51V127.86c0-3.04,2.47-5.51,5.51-5.51s5.51,2.47,5.51,5.51v144c0,3.04-2.47,5.51-5.51,5.51Z"/>
    <path class="cls-1" d="m270.21,205.28H127.75c-3.04,0-5.51-2.47-5.51-5.51s2.47-5.51,5.51-5.51h142.46c3.04,0,5.51,2.47,5.51,5.51s-2.47,5.51-5.51,5.51Z"/>
    <path class="cls-1" d="m199.88,276.54c-3.04,0-5.51-2.46-5.51-5.51l-.11-141.94c0-3.04,2.46-5.51,5.51-5.51h0c3.04,0,5.51,2.47,5.51,5.51l.11,141.94c0,3.04-2.46,5.51-5.51,5.51h0Z"/>
  </g>
  <path class="cls-2" d="m213.64,358.74h-27.59c-3.04,0-5.51-2.47-5.51-5.51v-27.94h-11.14c-2.23,0-4.24-1.35-5.09-3.41-.85-2.06-.37-4.44,1.21-6.01l30.44-30.2c2.15-2.13,5.61-2.13,7.76,0l30.44,30.2c1.58,1.57,2.06,3.95,1.21,6.01-.85,2.06-2.86,3.41-5.09,3.41h-11.14v27.94c0,3.04-2.47,5.51-5.51,5.51Zm-22.08-11.02h16.57v-27.94c0-3.04,2.47-5.51,5.51-5.51h3.27l-17.06-16.93-17.06,16.93h3.27c3.04,0,5.51,2.47,5.51,5.51v27.94Z"/>
  <path class="cls-2" d="m319.78,236.11c-1.44,0-2.86-.57-3.91-1.63l-30.2-30.44c-2.13-2.15-2.13-5.61,0-7.76l30.2-30.44c1.57-1.58,3.94-2.06,6.01-1.21,2.06.85,3.41,2.86,3.41,5.09v11.14h27.94c3.04,0,5.51,2.47,5.51,5.51v27.59c0,3.04-2.47,5.51-5.51,5.51h-27.94v11.14c0,2.23-1.35,4.24-3.41,5.09-.68.28-1.39.41-2.1.41Zm-22.44-35.95l16.93,17.06v-3.27c0-3.04,2.47-5.51,5.51-5.51h27.94v-16.57h-27.94c-3.04,0-5.51-2.47-5.51-5.51v-3.27l-16.93,17.06Z"/>
  <path class="cls-2" d="m200.16,115.93c-1.4,0-2.81-.53-3.88-1.6l-30.44-30.2c-1.58-1.57-2.06-3.95-1.21-6.01.85-2.06,2.86-3.41,5.09-3.41h11.14v-27.94c0-3.04,2.47-5.51,5.51-5.51h27.59c3.04,0,5.51,2.47,5.51,5.51v27.94h11.14c2.23,0,4.24,1.35,5.09,3.41.85,2.07.37,4.44-1.21,6.01l-30.44,30.2c-1.07,1.07-2.48,1.6-3.88,1.6Zm-17.06-30.2l17.06,16.93,17.06-16.93h-3.27c-3.04,0-5.51-2.47-5.51-5.51v-27.94h-16.57v27.94c0,3.04-2.47,5.51-5.51,5.51h-3.27Z"/>
  <path class="cls-2" d="m80.22,235.79c-.71,0-1.42-.14-2.1-.41-2.06-.85-3.41-2.86-3.41-5.09v-11.14h-27.94c-3.04,0-5.51-2.47-5.51-5.51v-27.59c0-3.04,2.47-5.51,5.51-5.51h27.94v-11.14c0-2.23,1.35-4.24,3.41-5.09,2.07-.85,4.44-.37,6.01,1.21l30.2,30.44c2.13,2.15,2.13,5.61,0,7.76l-30.2,30.44c-1.06,1.06-2.47,1.63-3.91,1.63Zm-27.94-27.67h27.94c3.04,0,5.51,2.47,5.51,5.51v3.27l16.93-17.06-16.93-17.06v3.27c0,3.04-2.47,5.51-5.51,5.51h-27.94v16.57Z"/>
</svg>