<svg width="565" height="447" viewBox="0 0 565 447" fill="none" xmlns="http://www.w3.org/2000/svg">
<path d="M2.5 447C3.88071 447 5 445.881 5 444.5C5 443.119 3.88071 442 2.5 442C1.11929 442 0 443.119 0 444.5C0 445.881 1.11929 447 2.5 447Z" fill="white"/>
<path d="M527.5 447C528.881 447 530 445.881 530 444.5C530 443.119 528.881 442 527.5 442C526.119 442 525 443.119 525 444.5C525 445.881 526.119 447 527.5 447Z" fill="white"/>
<path d="M562.5 447C563.881 447 565 445.881 565 444.5C565 443.119 563.881 442 562.5 442C561.119 442 560 443.119 560 444.5C560 445.881 561.119 447 562.5 447Z" fill="white"/>
<path d="M37.5 447C38.8807 447 40 445.881 40 444.5C40 443.119 38.8807 442 37.5 442C36.1193 442 35 443.119 35 444.5C35 445.881 36.1193 447 37.5 447Z" fill="white"/>
<path d="M72.5 447C73.8807 447 75 445.881 75 444.5C75 443.119 73.8807 442 72.5 442C71.1193 442 70 443.119 70 444.5C70 445.881 71.1193 447 72.5 447Z" fill="white"/>
<path d="M107.5 447C108.881 447 110 445.881 110 444.5C110 443.119 108.881 442 107.5 442C106.119 442 105 443.119 105 444.5C105 445.881 106.119 447 107.5 447Z" fill="white"/>
<path d="M142.5 447C143.881 447 145 445.881 145 444.5C145 443.119 143.881 442 142.5 442C141.119 442 140 443.119 140 444.5C140 445.881 141.119 447 142.5 447Z" fill="white"/>
<path d="M177.5 447C178.881 447 180 445.881 180 444.5C180 443.119 178.881 442 177.5 442C176.119 442 175 443.119 175 444.5C175 445.881 176.119 447 177.5 447Z" fill="white"/>
<path d="M212.5 447C213.881 447 215 445.881 215 444.5C215 443.119 213.881 442 212.5 442C211.119 442 210 443.119 210 444.5C210 445.881 211.119 447 212.5 447Z" fill="white"/>
<path d="M247.5 447C248.881 447 250 445.881 250 444.5C250 443.119 248.881 442 247.5 442C246.119 442 245 443.119 245 444.5C245 445.881 246.119 447 247.5 447Z" fill="white"/>
<path d="M282.5 447C283.881 447 285 445.881 285 444.5C285 443.119 283.881 442 282.5 442C281.119 442 280 443.119 280 444.5C280 445.881 281.119 447 282.5 447Z" fill="white"/>
<path d="M317.5 447C318.881 447 320 445.881 320 444.5C320 443.119 318.881 442 317.5 442C316.119 442 315 443.119 315 444.5C315 445.881 316.119 447 317.5 447Z" fill="white"/>
<path d="M352.5 447C353.881 447 355 445.881 355 444.5C355 443.119 353.881 442 352.5 442C351.119 442 350 443.119 350 444.5C350 445.881 351.119 447 352.5 447Z" fill="white"/>
<path d="M387.5 447C388.881 447 390 445.881 390 444.5C390 443.119 388.881 442 387.5 442C386.119 442 385 443.119 385 444.5C385 445.881 386.119 447 387.5 447Z" fill="white"/>
<path d="M492.5 447C493.881 447 495 445.881 495 444.5C495 443.119 493.881 442 492.5 442C491.119 442 490 443.119 490 444.5C490 445.881 491.119 447 492.5 447Z" fill="white"/>
<path d="M457.5 447C458.881 447 460 445.881 460 444.5C460 443.119 458.881 442 457.5 442C456.119 442 455 443.119 455 444.5C455 445.881 456.119 447 457.5 447Z" fill="white"/>
<path d="M422.5 447C423.881 447 425 445.881 425 444.5C425 443.119 423.881 442 422.5 442C421.119 442 420 443.119 420 444.5C420 445.881 421.119 447 422.5 447Z" fill="white"/>
<path d="M2.5 413C3.88071 413 5 411.881 5 410.5C5 409.119 3.88071 408 2.5 408C1.11929 408 0 409.119 0 410.5C0 411.881 1.11929 413 2.5 413Z" fill="white"/>
<path d="M527.5 413C528.881 413 530 411.881 530 410.5C530 409.119 528.881 408 527.5 408C526.119 408 525 409.119 525 410.5C525 411.881 526.119 413 527.5 413Z" fill="white"/>
<path d="M562.5 413C563.881 413 565 411.881 565 410.5C565 409.119 563.881 408 562.5 408C561.119 408 560 409.119 560 410.5C560 411.881 561.119 413 562.5 413Z" fill="white"/>
<path d="M37.5 413C38.8807 413 40 411.881 40 410.5C40 409.119 38.8807 408 37.5 408C36.1193 408 35 409.119 35 410.5C35 411.881 36.1193 413 37.5 413Z" fill="white"/>
<path d="M72.5 413C73.8807 413 75 411.881 75 410.5C75 409.119 73.8807 408 72.5 408C71.1193 408 70 409.119 70 410.5C70 411.881 71.1193 413 72.5 413Z" fill="white"/>
<path d="M107.5 413C108.881 413 110 411.881 110 410.5C110 409.119 108.881 408 107.5 408C106.119 408 105 409.119 105 410.5C105 411.881 106.119 413 107.5 413Z" fill="white"/>
<path d="M142.5 413C143.881 413 145 411.881 145 410.5C145 409.119 143.881 408 142.5 408C141.119 408 140 409.119 140 410.5C140 411.881 141.119 413 142.5 413Z" fill="white"/>
<path d="M177.5 413C178.881 413 180 411.881 180 410.5C180 409.119 178.881 408 177.5 408C176.119 408 175 409.119 175 410.5C175 411.881 176.119 413 177.5 413Z" fill="white"/>
<path d="M212.5 413C213.881 413 215 411.881 215 410.5C215 409.119 213.881 408 212.5 408C211.119 408 210 409.119 210 410.5C210 411.881 211.119 413 212.5 413Z" fill="white"/>
<path d="M247.5 413C248.881 413 250 411.881 250 410.5C250 409.119 248.881 408 247.5 408C246.119 408 245 409.119 245 410.5C245 411.881 246.119 413 247.5 413Z" fill="white"/>
<path d="M282.5 413C283.881 413 285 411.881 285 410.5C285 409.119 283.881 408 282.5 408C281.119 408 280 409.119 280 410.5C280 411.881 281.119 413 282.5 413Z" fill="white"/>
<path d="M317.5 413C318.881 413 320 411.881 320 410.5C320 409.119 318.881 408 317.5 408C316.119 408 315 409.119 315 410.5C315 411.881 316.119 413 317.5 413Z" fill="white"/>
<path d="M352.5 413C353.881 413 355 411.881 355 410.5C355 409.119 353.881 408 352.5 408C351.119 408 350 409.119 350 410.5C350 411.881 351.119 413 352.5 413Z" fill="white"/>
<path d="M387.5 413C388.881 413 390 411.881 390 410.5C390 409.119 388.881 408 387.5 408C386.119 408 385 409.119 385 410.5C385 411.881 386.119 413 387.5 413Z" fill="white"/>
<path d="M492.5 413C493.881 413 495 411.881 495 410.5C495 409.119 493.881 408 492.5 408C491.119 408 490 409.119 490 410.5C490 411.881 491.119 413 492.5 413Z" fill="white"/>
<path d="M457.5 413C458.881 413 460 411.881 460 410.5C460 409.119 458.881 408 457.5 408C456.119 408 455 409.119 455 410.5C455 411.881 456.119 413 457.5 413Z" fill="white"/>
<path d="M422.5 413C423.881 413 425 411.881 425 410.5C425 409.119 423.881 408 422.5 408C421.119 408 420 409.119 420 410.5C420 411.881 421.119 413 422.5 413Z" fill="white"/>
<path d="M2.5 379C3.88071 379 5 377.881 5 376.5C5 375.119 3.88071 374 2.5 374C1.11929 374 0 375.119 0 376.5C0 377.881 1.11929 379 2.5 379Z" fill="white"/>
<path d="M527.5 379C528.881 379 530 377.881 530 376.5C530 375.119 528.881 374 527.5 374C526.119 374 525 375.119 525 376.5C525 377.881 526.119 379 527.5 379Z" fill="white"/>
<path d="M562.5 379C563.881 379 565 377.881 565 376.5C565 375.119 563.881 374 562.5 374C561.119 374 560 375.119 560 376.5C560 377.881 561.119 379 562.5 379Z" fill="white"/>
<path d="M37.5 379C38.8807 379 40 377.881 40 376.5C40 375.119 38.8807 374 37.5 374C36.1193 374 35 375.119 35 376.5C35 377.881 36.1193 379 37.5 379Z" fill="white"/>
<path d="M72.5 379C73.8807 379 75 377.881 75 376.5C75 375.119 73.8807 374 72.5 374C71.1193 374 70 375.119 70 376.5C70 377.881 71.1193 379 72.5 379Z" fill="white"/>
<path d="M107.5 379C108.881 379 110 377.881 110 376.5C110 375.119 108.881 374 107.5 374C106.119 374 105 375.119 105 376.5C105 377.881 106.119 379 107.5 379Z" fill="white"/>
<path d="M142.5 379C143.881 379 145 377.881 145 376.5C145 375.119 143.881 374 142.5 374C141.119 374 140 375.119 140 376.5C140 377.881 141.119 379 142.5 379Z" fill="white"/>
<path d="M177.5 379C178.881 379 180 377.881 180 376.5C180 375.119 178.881 374 177.5 374C176.119 374 175 375.119 175 376.5C175 377.881 176.119 379 177.5 379Z" fill="white"/>
<path d="M212.5 379C213.881 379 215 377.881 215 376.5C215 375.119 213.881 374 212.5 374C211.119 374 210 375.119 210 376.5C210 377.881 211.119 379 212.5 379Z" fill="white"/>
<path d="M247.5 379C248.881 379 250 377.881 250 376.5C250 375.119 248.881 374 247.5 374C246.119 374 245 375.119 245 376.5C245 377.881 246.119 379 247.5 379Z" fill="white"/>
<path d="M282.5 379C283.881 379 285 377.881 285 376.5C285 375.119 283.881 374 282.5 374C281.119 374 280 375.119 280 376.5C280 377.881 281.119 379 282.5 379Z" fill="white"/>
<path d="M317.5 379C318.881 379 320 377.881 320 376.5C320 375.119 318.881 374 317.5 374C316.119 374 315 375.119 315 376.5C315 377.881 316.119 379 317.5 379Z" fill="white"/>
<path d="M352.5 379C353.881 379 355 377.881 355 376.5C355 375.119 353.881 374 352.5 374C351.119 374 350 375.119 350 376.5C350 377.881 351.119 379 352.5 379Z" fill="white"/>
<path d="M387.5 379C388.881 379 390 377.881 390 376.5C390 375.119 388.881 374 387.5 374C386.119 374 385 375.119 385 376.5C385 377.881 386.119 379 387.5 379Z" fill="white"/>
<path d="M492.5 379C493.881 379 495 377.881 495 376.5C495 375.119 493.881 374 492.5 374C491.119 374 490 375.119 490 376.5C490 377.881 491.119 379 492.5 379Z" fill="white"/>
<path d="M457.5 379C458.881 379 460 377.881 460 376.5C460 375.119 458.881 374 457.5 374C456.119 374 455 375.119 455 376.5C455 377.881 456.119 379 457.5 379Z" fill="white"/>
<path d="M422.5 379C423.881 379 425 377.881 425 376.5C425 375.119 423.881 374 422.5 374C421.119 374 420 375.119 420 376.5C420 377.881 421.119 379 422.5 379Z" fill="white"/>
<path d="M2.5 345C3.88071 345 5 343.881 5 342.5C5 341.119 3.88071 340 2.5 340C1.11929 340 0 341.119 0 342.5C0 343.881 1.11929 345 2.5 345Z" fill="white"/>
<path d="M527.5 345C528.881 345 530 343.881 530 342.5C530 341.119 528.881 340 527.5 340C526.119 340 525 341.119 525 342.5C525 343.881 526.119 345 527.5 345Z" fill="white"/>
<path d="M562.5 345C563.881 345 565 343.881 565 342.5C565 341.119 563.881 340 562.5 340C561.119 340 560 341.119 560 342.5C560 343.881 561.119 345 562.5 345Z" fill="white"/>
<path d="M37.5 345C38.8807 345 40 343.881 40 342.5C40 341.119 38.8807 340 37.5 340C36.1193 340 35 341.119 35 342.5C35 343.881 36.1193 345 37.5 345Z" fill="white"/>
<path d="M72.5 345C73.8807 345 75 343.881 75 342.5C75 341.119 73.8807 340 72.5 340C71.1193 340 70 341.119 70 342.5C70 343.881 71.1193 345 72.5 345Z" fill="white"/>
<path d="M107.5 345C108.881 345 110 343.881 110 342.5C110 341.119 108.881 340 107.5 340C106.119 340 105 341.119 105 342.5C105 343.881 106.119 345 107.5 345Z" fill="white"/>
<path d="M142.5 345C143.881 345 145 343.881 145 342.5C145 341.119 143.881 340 142.5 340C141.119 340 140 341.119 140 342.5C140 343.881 141.119 345 142.5 345Z" fill="white"/>
<path d="M177.5 345C178.881 345 180 343.881 180 342.5C180 341.119 178.881 340 177.5 340C176.119 340 175 341.119 175 342.5C175 343.881 176.119 345 177.5 345Z" fill="white"/>
<path d="M212.5 345C213.881 345 215 343.881 215 342.5C215 341.119 213.881 340 212.5 340C211.119 340 210 341.119 210 342.5C210 343.881 211.119 345 212.5 345Z" fill="white"/>
<path d="M247.5 345C248.881 345 250 343.881 250 342.5C250 341.119 248.881 340 247.5 340C246.119 340 245 341.119 245 342.5C245 343.881 246.119 345 247.5 345Z" fill="white"/>
<path d="M282.5 345C283.881 345 285 343.881 285 342.5C285 341.119 283.881 340 282.5 340C281.119 340 280 341.119 280 342.5C280 343.881 281.119 345 282.5 345Z" fill="white"/>
<path d="M317.5 345C318.881 345 320 343.881 320 342.5C320 341.119 318.881 340 317.5 340C316.119 340 315 341.119 315 342.5C315 343.881 316.119 345 317.5 345Z" fill="white"/>
<path d="M352.5 345C353.881 345 355 343.881 355 342.5C355 341.119 353.881 340 352.5 340C351.119 340 350 341.119 350 342.5C350 343.881 351.119 345 352.5 345Z" fill="white"/>
<path d="M387.5 345C388.881 345 390 343.881 390 342.5C390 341.119 388.881 340 387.5 340C386.119 340 385 341.119 385 342.5C385 343.881 386.119 345 387.5 345Z" fill="white"/>
<path d="M492.5 345C493.881 345 495 343.881 495 342.5C495 341.119 493.881 340 492.5 340C491.119 340 490 341.119 490 342.5C490 343.881 491.119 345 492.5 345Z" fill="white"/>
<path d="M457.5 345C458.881 345 460 343.881 460 342.5C460 341.119 458.881 340 457.5 340C456.119 340 455 341.119 455 342.5C455 343.881 456.119 345 457.5 345Z" fill="white"/>
<path d="M422.5 345C423.881 345 425 343.881 425 342.5C425 341.119 423.881 340 422.5 340C421.119 340 420 341.119 420 342.5C420 343.881 421.119 345 422.5 345Z" fill="white"/>
<path d="M2.5 311C3.88071 311 5 309.881 5 308.5C5 307.119 3.88071 306 2.5 306C1.11929 306 0 307.119 0 308.5C0 309.881 1.11929 311 2.5 311Z" fill="white"/>
<path d="M527.5 311C528.881 311 530 309.881 530 308.5C530 307.119 528.881 306 527.5 306C526.119 306 525 307.119 525 308.5C525 309.881 526.119 311 527.5 311Z" fill="white"/>
<path d="M562.5 311C563.881 311 565 309.881 565 308.5C565 307.119 563.881 306 562.5 306C561.119 306 560 307.119 560 308.5C560 309.881 561.119 311 562.5 311Z" fill="white"/>
<path d="M37.5 311C38.8807 311 40 309.881 40 308.5C40 307.119 38.8807 306 37.5 306C36.1193 306 35 307.119 35 308.5C35 309.881 36.1193 311 37.5 311Z" fill="white"/>
<path d="M72.5 311C73.8807 311 75 309.881 75 308.5C75 307.119 73.8807 306 72.5 306C71.1193 306 70 307.119 70 308.5C70 309.881 71.1193 311 72.5 311Z" fill="white"/>
<path d="M107.5 311C108.881 311 110 309.881 110 308.5C110 307.119 108.881 306 107.5 306C106.119 306 105 307.119 105 308.5C105 309.881 106.119 311 107.5 311Z" fill="white"/>
<path d="M142.5 311C143.881 311 145 309.881 145 308.5C145 307.119 143.881 306 142.5 306C141.119 306 140 307.119 140 308.5C140 309.881 141.119 311 142.5 311Z" fill="white"/>
<path d="M177.5 311C178.881 311 180 309.881 180 308.5C180 307.119 178.881 306 177.5 306C176.119 306 175 307.119 175 308.5C175 309.881 176.119 311 177.5 311Z" fill="white"/>
<path d="M212.5 311C213.881 311 215 309.881 215 308.5C215 307.119 213.881 306 212.5 306C211.119 306 210 307.119 210 308.5C210 309.881 211.119 311 212.5 311Z" fill="white"/>
<path d="M247.5 311C248.881 311 250 309.881 250 308.5C250 307.119 248.881 306 247.5 306C246.119 306 245 307.119 245 308.5C245 309.881 246.119 311 247.5 311Z" fill="white"/>
<path d="M282.5 311C283.881 311 285 309.881 285 308.5C285 307.119 283.881 306 282.5 306C281.119 306 280 307.119 280 308.5C280 309.881 281.119 311 282.5 311Z" fill="white"/>
<path d="M317.5 311C318.881 311 320 309.881 320 308.5C320 307.119 318.881 306 317.5 306C316.119 306 315 307.119 315 308.5C315 309.881 316.119 311 317.5 311Z" fill="white"/>
<path d="M352.5 311C353.881 311 355 309.881 355 308.5C355 307.119 353.881 306 352.5 306C351.119 306 350 307.119 350 308.5C350 309.881 351.119 311 352.5 311Z" fill="white"/>
<path d="M387.5 311C388.881 311 390 309.881 390 308.5C390 307.119 388.881 306 387.5 306C386.119 306 385 307.119 385 308.5C385 309.881 386.119 311 387.5 311Z" fill="white"/>
<path d="M492.5 311C493.881 311 495 309.881 495 308.5C495 307.119 493.881 306 492.5 306C491.119 306 490 307.119 490 308.5C490 309.881 491.119 311 492.5 311Z" fill="white"/>
<path d="M457.5 311C458.881 311 460 309.881 460 308.5C460 307.119 458.881 306 457.5 306C456.119 306 455 307.119 455 308.5C455 309.881 456.119 311 457.5 311Z" fill="white"/>
<path d="M422.5 311C423.881 311 425 309.881 425 308.5C425 307.119 423.881 306 422.5 306C421.119 306 420 307.119 420 308.5C420 309.881 421.119 311 422.5 311Z" fill="white"/>
<path d="M2.5 277C3.88071 277 5 275.881 5 274.5C5 273.119 3.88071 272 2.5 272C1.11929 272 0 273.119 0 274.5C0 275.881 1.11929 277 2.5 277Z" fill="white"/>
<path d="M527.5 277C528.881 277 530 275.881 530 274.5C530 273.119 528.881 272 527.5 272C526.119 272 525 273.119 525 274.5C525 275.881 526.119 277 527.5 277Z" fill="white"/>
<path d="M562.5 277C563.881 277 565 275.881 565 274.5C565 273.119 563.881 272 562.5 272C561.119 272 560 273.119 560 274.5C560 275.881 561.119 277 562.5 277Z" fill="white"/>
<path d="M37.5 277C38.8807 277 40 275.881 40 274.5C40 273.119 38.8807 272 37.5 272C36.1193 272 35 273.119 35 274.5C35 275.881 36.1193 277 37.5 277Z" fill="white"/>
<path d="M72.5 277C73.8807 277 75 275.881 75 274.5C75 273.119 73.8807 272 72.5 272C71.1193 272 70 273.119 70 274.5C70 275.881 71.1193 277 72.5 277Z" fill="white"/>
<path d="M107.5 277C108.881 277 110 275.881 110 274.5C110 273.119 108.881 272 107.5 272C106.119 272 105 273.119 105 274.5C105 275.881 106.119 277 107.5 277Z" fill="white"/>
<path d="M142.5 277C143.881 277 145 275.881 145 274.5C145 273.119 143.881 272 142.5 272C141.119 272 140 273.119 140 274.5C140 275.881 141.119 277 142.5 277Z" fill="white"/>
<path d="M177.5 277C178.881 277 180 275.881 180 274.5C180 273.119 178.881 272 177.5 272C176.119 272 175 273.119 175 274.5C175 275.881 176.119 277 177.5 277Z" fill="white"/>
<path d="M212.5 277C213.881 277 215 275.881 215 274.5C215 273.119 213.881 272 212.5 272C211.119 272 210 273.119 210 274.5C210 275.881 211.119 277 212.5 277Z" fill="white"/>
<path d="M247.5 277C248.881 277 250 275.881 250 274.5C250 273.119 248.881 272 247.5 272C246.119 272 245 273.119 245 274.5C245 275.881 246.119 277 247.5 277Z" fill="white"/>
<path d="M282.5 277C283.881 277 285 275.881 285 274.5C285 273.119 283.881 272 282.5 272C281.119 272 280 273.119 280 274.5C280 275.881 281.119 277 282.5 277Z" fill="white"/>
<path d="M317.5 277C318.881 277 320 275.881 320 274.5C320 273.119 318.881 272 317.5 272C316.119 272 315 273.119 315 274.5C315 275.881 316.119 277 317.5 277Z" fill="white"/>
<path d="M352.5 277C353.881 277 355 275.881 355 274.5C355 273.119 353.881 272 352.5 272C351.119 272 350 273.119 350 274.5C350 275.881 351.119 277 352.5 277Z" fill="white"/>
<path d="M387.5 277C388.881 277 390 275.881 390 274.5C390 273.119 388.881 272 387.5 272C386.119 272 385 273.119 385 274.5C385 275.881 386.119 277 387.5 277Z" fill="white"/>
<path d="M492.5 277C493.881 277 495 275.881 495 274.5C495 273.119 493.881 272 492.5 272C491.119 272 490 273.119 490 274.5C490 275.881 491.119 277 492.5 277Z" fill="white"/>
<path d="M457.5 277C458.881 277 460 275.881 460 274.5C460 273.119 458.881 272 457.5 272C456.119 272 455 273.119 455 274.5C455 275.881 456.119 277 457.5 277Z" fill="white"/>
<path d="M422.5 277C423.881 277 425 275.881 425 274.5C425 273.119 423.881 272 422.5 272C421.119 272 420 273.119 420 274.5C420 275.881 421.119 277 422.5 277Z" fill="white"/>
<path d="M2.5 243C3.88071 243 5 241.881 5 240.5C5 239.119 3.88071 238 2.5 238C1.11929 238 0 239.119 0 240.5C0 241.881 1.11929 243 2.5 243Z" fill="white"/>
<path d="M527.5 243C528.881 243 530 241.881 530 240.5C530 239.119 528.881 238 527.5 238C526.119 238 525 239.119 525 240.5C525 241.881 526.119 243 527.5 243Z" fill="white"/>
<path d="M562.5 243C563.881 243 565 241.881 565 240.5C565 239.119 563.881 238 562.5 238C561.119 238 560 239.119 560 240.5C560 241.881 561.119 243 562.5 243Z" fill="white"/>
<path d="M37.5 243C38.8807 243 40 241.881 40 240.5C40 239.119 38.8807 238 37.5 238C36.1193 238 35 239.119 35 240.5C35 241.881 36.1193 243 37.5 243Z" fill="white"/>
<path d="M72.5 243C73.8807 243 75 241.881 75 240.5C75 239.119 73.8807 238 72.5 238C71.1193 238 70 239.119 70 240.5C70 241.881 71.1193 243 72.5 243Z" fill="white"/>
<path d="M107.5 243C108.881 243 110 241.881 110 240.5C110 239.119 108.881 238 107.5 238C106.119 238 105 239.119 105 240.5C105 241.881 106.119 243 107.5 243Z" fill="white"/>
<path d="M142.5 243C143.881 243 145 241.881 145 240.5C145 239.119 143.881 238 142.5 238C141.119 238 140 239.119 140 240.5C140 241.881 141.119 243 142.5 243Z" fill="white"/>
<path d="M177.5 243C178.881 243 180 241.881 180 240.5C180 239.119 178.881 238 177.5 238C176.119 238 175 239.119 175 240.5C175 241.881 176.119 243 177.5 243Z" fill="white"/>
<path d="M212.5 243C213.881 243 215 241.881 215 240.5C215 239.119 213.881 238 212.5 238C211.119 238 210 239.119 210 240.5C210 241.881 211.119 243 212.5 243Z" fill="white"/>
<path d="M247.5 243C248.881 243 250 241.881 250 240.5C250 239.119 248.881 238 247.5 238C246.119 238 245 239.119 245 240.5C245 241.881 246.119 243 247.5 243Z" fill="white"/>
<path d="M282.5 243C283.881 243 285 241.881 285 240.5C285 239.119 283.881 238 282.5 238C281.119 238 280 239.119 280 240.5C280 241.881 281.119 243 282.5 243Z" fill="white"/>
<path d="M317.5 243C318.881 243 320 241.881 320 240.5C320 239.119 318.881 238 317.5 238C316.119 238 315 239.119 315 240.5C315 241.881 316.119 243 317.5 243Z" fill="white"/>
<path d="M352.5 243C353.881 243 355 241.881 355 240.5C355 239.119 353.881 238 352.5 238C351.119 238 350 239.119 350 240.5C350 241.881 351.119 243 352.5 243Z" fill="white"/>
<path d="M387.5 243C388.881 243 390 241.881 390 240.5C390 239.119 388.881 238 387.5 238C386.119 238 385 239.119 385 240.5C385 241.881 386.119 243 387.5 243Z" fill="white"/>
<path d="M492.5 243C493.881 243 495 241.881 495 240.5C495 239.119 493.881 238 492.5 238C491.119 238 490 239.119 490 240.5C490 241.881 491.119 243 492.5 243Z" fill="white"/>
<path d="M457.5 243C458.881 243 460 241.881 460 240.5C460 239.119 458.881 238 457.5 238C456.119 238 455 239.119 455 240.5C455 241.881 456.119 243 457.5 243Z" fill="white"/>
<path d="M422.5 243C423.881 243 425 241.881 425 240.5C425 239.119 423.881 238 422.5 238C421.119 238 420 239.119 420 240.5C420 241.881 421.119 243 422.5 243Z" fill="white"/>
<path d="M2.5 209C3.88071 209 5 207.881 5 206.5C5 205.119 3.88071 204 2.5 204C1.11929 204 0 205.119 0 206.5C0 207.881 1.11929 209 2.5 209Z" fill="white"/>
<path d="M527.5 209C528.881 209 530 207.881 530 206.5C530 205.119 528.881 204 527.5 204C526.119 204 525 205.119 525 206.5C525 207.881 526.119 209 527.5 209Z" fill="white"/>
<path d="M562.5 209C563.881 209 565 207.881 565 206.5C565 205.119 563.881 204 562.5 204C561.119 204 560 205.119 560 206.5C560 207.881 561.119 209 562.5 209Z" fill="white"/>
<path d="M37.5 209C38.8807 209 40 207.881 40 206.5C40 205.119 38.8807 204 37.5 204C36.1193 204 35 205.119 35 206.5C35 207.881 36.1193 209 37.5 209Z" fill="white"/>
<path d="M72.5 209C73.8807 209 75 207.881 75 206.5C75 205.119 73.8807 204 72.5 204C71.1193 204 70 205.119 70 206.5C70 207.881 71.1193 209 72.5 209Z" fill="white"/>
<path d="M107.5 209C108.881 209 110 207.881 110 206.5C110 205.119 108.881 204 107.5 204C106.119 204 105 205.119 105 206.5C105 207.881 106.119 209 107.5 209Z" fill="white"/>
<path d="M142.5 209C143.881 209 145 207.881 145 206.5C145 205.119 143.881 204 142.5 204C141.119 204 140 205.119 140 206.5C140 207.881 141.119 209 142.5 209Z" fill="white"/>
<path d="M177.5 209C178.881 209 180 207.881 180 206.5C180 205.119 178.881 204 177.5 204C176.119 204 175 205.119 175 206.5C175 207.881 176.119 209 177.5 209Z" fill="white"/>
<path d="M212.5 209C213.881 209 215 207.881 215 206.5C215 205.119 213.881 204 212.5 204C211.119 204 210 205.119 210 206.5C210 207.881 211.119 209 212.5 209Z" fill="white"/>
<path d="M247.5 209C248.881 209 250 207.881 250 206.5C250 205.119 248.881 204 247.5 204C246.119 204 245 205.119 245 206.5C245 207.881 246.119 209 247.5 209Z" fill="white"/>
<path d="M282.5 209C283.881 209 285 207.881 285 206.5C285 205.119 283.881 204 282.5 204C281.119 204 280 205.119 280 206.5C280 207.881 281.119 209 282.5 209Z" fill="white"/>
<path d="M317.5 209C318.881 209 320 207.881 320 206.5C320 205.119 318.881 204 317.5 204C316.119 204 315 205.119 315 206.5C315 207.881 316.119 209 317.5 209Z" fill="white"/>
<path d="M352.5 209C353.881 209 355 207.881 355 206.5C355 205.119 353.881 204 352.5 204C351.119 204 350 205.119 350 206.5C350 207.881 351.119 209 352.5 209Z" fill="white"/>
<path d="M387.5 209C388.881 209 390 207.881 390 206.5C390 205.119 388.881 204 387.5 204C386.119 204 385 205.119 385 206.5C385 207.881 386.119 209 387.5 209Z" fill="white"/>
<path d="M492.5 209C493.881 209 495 207.881 495 206.5C495 205.119 493.881 204 492.5 204C491.119 204 490 205.119 490 206.5C490 207.881 491.119 209 492.5 209Z" fill="white"/>
<path d="M457.5 209C458.881 209 460 207.881 460 206.5C460 205.119 458.881 204 457.5 204C456.119 204 455 205.119 455 206.5C455 207.881 456.119 209 457.5 209Z" fill="white"/>
<path d="M422.5 209C423.881 209 425 207.881 425 206.5C425 205.119 423.881 204 422.5 204C421.119 204 420 205.119 420 206.5C420 207.881 421.119 209 422.5 209Z" fill="white"/>
<path d="M2.5 175C3.88071 175 5 173.881 5 172.5C5 171.119 3.88071 170 2.5 170C1.11929 170 0 171.119 0 172.5C0 173.881 1.11929 175 2.5 175Z" fill="white"/>
<path d="M527.5 175C528.881 175 530 173.881 530 172.5C530 171.119 528.881 170 527.5 170C526.119 170 525 171.119 525 172.5C525 173.881 526.119 175 527.5 175Z" fill="white"/>
<path d="M562.5 175C563.881 175 565 173.881 565 172.5C565 171.119 563.881 170 562.5 170C561.119 170 560 171.119 560 172.5C560 173.881 561.119 175 562.5 175Z" fill="white"/>
<path d="M37.5 175C38.8807 175 40 173.881 40 172.5C40 171.119 38.8807 170 37.5 170C36.1193 170 35 171.119 35 172.5C35 173.881 36.1193 175 37.5 175Z" fill="white"/>
<path d="M72.5 175C73.8807 175 75 173.881 75 172.5C75 171.119 73.8807 170 72.5 170C71.1193 170 70 171.119 70 172.5C70 173.881 71.1193 175 72.5 175Z" fill="white"/>
<path d="M107.5 175C108.881 175 110 173.881 110 172.5C110 171.119 108.881 170 107.5 170C106.119 170 105 171.119 105 172.5C105 173.881 106.119 175 107.5 175Z" fill="white"/>
<path d="M142.5 175C143.881 175 145 173.881 145 172.5C145 171.119 143.881 170 142.5 170C141.119 170 140 171.119 140 172.5C140 173.881 141.119 175 142.5 175Z" fill="white"/>
<path d="M177.5 175C178.881 175 180 173.881 180 172.5C180 171.119 178.881 170 177.5 170C176.119 170 175 171.119 175 172.5C175 173.881 176.119 175 177.5 175Z" fill="white"/>
<path d="M212.5 175C213.881 175 215 173.881 215 172.5C215 171.119 213.881 170 212.5 170C211.119 170 210 171.119 210 172.5C210 173.881 211.119 175 212.5 175Z" fill="white"/>
<path d="M247.5 175C248.881 175 250 173.881 250 172.5C250 171.119 248.881 170 247.5 170C246.119 170 245 171.119 245 172.5C245 173.881 246.119 175 247.5 175Z" fill="white"/>
<path d="M282.5 175C283.881 175 285 173.881 285 172.5C285 171.119 283.881 170 282.5 170C281.119 170 280 171.119 280 172.5C280 173.881 281.119 175 282.5 175Z" fill="white"/>
<path d="M317.5 175C318.881 175 320 173.881 320 172.5C320 171.119 318.881 170 317.5 170C316.119 170 315 171.119 315 172.5C315 173.881 316.119 175 317.5 175Z" fill="white"/>
<path d="M352.5 175C353.881 175 355 173.881 355 172.5C355 171.119 353.881 170 352.5 170C351.119 170 350 171.119 350 172.5C350 173.881 351.119 175 352.5 175Z" fill="white"/>
<path d="M387.5 175C388.881 175 390 173.881 390 172.5C390 171.119 388.881 170 387.5 170C386.119 170 385 171.119 385 172.5C385 173.881 386.119 175 387.5 175Z" fill="white"/>
<path d="M492.5 175C493.881 175 495 173.881 495 172.5C495 171.119 493.881 170 492.5 170C491.119 170 490 171.119 490 172.5C490 173.881 491.119 175 492.5 175Z" fill="white"/>
<path d="M457.5 175C458.881 175 460 173.881 460 172.5C460 171.119 458.881 170 457.5 170C456.119 170 455 171.119 455 172.5C455 173.881 456.119 175 457.5 175Z" fill="white"/>
<path d="M422.5 175C423.881 175 425 173.881 425 172.5C425 171.119 423.881 170 422.5 170C421.119 170 420 171.119 420 172.5C420 173.881 421.119 175 422.5 175Z" fill="white"/>
<path d="M2.5 141C3.88071 141 5 139.881 5 138.5C5 137.119 3.88071 136 2.5 136C1.11929 136 0 137.119 0 138.5C0 139.881 1.11929 141 2.5 141Z" fill="white"/>
<path d="M527.5 141C528.881 141 530 139.881 530 138.5C530 137.119 528.881 136 527.5 136C526.119 136 525 137.119 525 138.5C525 139.881 526.119 141 527.5 141Z" fill="white"/>
<path d="M562.5 141C563.881 141 565 139.881 565 138.5C565 137.119 563.881 136 562.5 136C561.119 136 560 137.119 560 138.5C560 139.881 561.119 141 562.5 141Z" fill="white"/>
<path d="M37.5 141C38.8807 141 40 139.881 40 138.5C40 137.119 38.8807 136 37.5 136C36.1193 136 35 137.119 35 138.5C35 139.881 36.1193 141 37.5 141Z" fill="white"/>
<path d="M72.5 141C73.8807 141 75 139.881 75 138.5C75 137.119 73.8807 136 72.5 136C71.1193 136 70 137.119 70 138.5C70 139.881 71.1193 141 72.5 141Z" fill="white"/>
<path d="M107.5 141C108.881 141 110 139.881 110 138.5C110 137.119 108.881 136 107.5 136C106.119 136 105 137.119 105 138.5C105 139.881 106.119 141 107.5 141Z" fill="white"/>
<path d="M142.5 141C143.881 141 145 139.881 145 138.5C145 137.119 143.881 136 142.5 136C141.119 136 140 137.119 140 138.5C140 139.881 141.119 141 142.5 141Z" fill="white"/>
<path d="M177.5 141C178.881 141 180 139.881 180 138.5C180 137.119 178.881 136 177.5 136C176.119 136 175 137.119 175 138.5C175 139.881 176.119 141 177.5 141Z" fill="white"/>
<path d="M212.5 141C213.881 141 215 139.881 215 138.5C215 137.119 213.881 136 212.5 136C211.119 136 210 137.119 210 138.5C210 139.881 211.119 141 212.5 141Z" fill="white"/>
<path d="M247.5 141C248.881 141 250 139.881 250 138.5C250 137.119 248.881 136 247.5 136C246.119 136 245 137.119 245 138.5C245 139.881 246.119 141 247.5 141Z" fill="white"/>
<path d="M282.5 141C283.881 141 285 139.881 285 138.5C285 137.119 283.881 136 282.5 136C281.119 136 280 137.119 280 138.5C280 139.881 281.119 141 282.5 141Z" fill="white"/>
<path d="M317.5 141C318.881 141 320 139.881 320 138.5C320 137.119 318.881 136 317.5 136C316.119 136 315 137.119 315 138.5C315 139.881 316.119 141 317.5 141Z" fill="white"/>
<path d="M352.5 141C353.881 141 355 139.881 355 138.5C355 137.119 353.881 136 352.5 136C351.119 136 350 137.119 350 138.5C350 139.881 351.119 141 352.5 141Z" fill="white"/>
<path d="M387.5 141C388.881 141 390 139.881 390 138.5C390 137.119 388.881 136 387.5 136C386.119 136 385 137.119 385 138.5C385 139.881 386.119 141 387.5 141Z" fill="white"/>
<path d="M492.5 141C493.881 141 495 139.881 495 138.5C495 137.119 493.881 136 492.5 136C491.119 136 490 137.119 490 138.5C490 139.881 491.119 141 492.5 141Z" fill="white"/>
<path d="M457.5 141C458.881 141 460 139.881 460 138.5C460 137.119 458.881 136 457.5 136C456.119 136 455 137.119 455 138.5C455 139.881 456.119 141 457.5 141Z" fill="white"/>
<path d="M422.5 141C423.881 141 425 139.881 425 138.5C425 137.119 423.881 136 422.5 136C421.119 136 420 137.119 420 138.5C420 139.881 421.119 141 422.5 141Z" fill="white"/>
<path d="M2.5 107C3.88071 107 5 105.881 5 104.5C5 103.119 3.88071 102 2.5 102C1.11929 102 0 103.119 0 104.5C0 105.881 1.11929 107 2.5 107Z" fill="white"/>
<path d="M527.5 107C528.881 107 530 105.881 530 104.5C530 103.119 528.881 102 527.5 102C526.119 102 525 103.119 525 104.5C525 105.881 526.119 107 527.5 107Z" fill="white"/>
<path d="M562.5 107C563.881 107 565 105.881 565 104.5C565 103.119 563.881 102 562.5 102C561.119 102 560 103.119 560 104.5C560 105.881 561.119 107 562.5 107Z" fill="white"/>
<path d="M37.5 107C38.8807 107 40 105.881 40 104.5C40 103.119 38.8807 102 37.5 102C36.1193 102 35 103.119 35 104.5C35 105.881 36.1193 107 37.5 107Z" fill="white"/>
<path d="M72.5 107C73.8807 107 75 105.881 75 104.5C75 103.119 73.8807 102 72.5 102C71.1193 102 70 103.119 70 104.5C70 105.881 71.1193 107 72.5 107Z" fill="white"/>
<path d="M107.5 107C108.881 107 110 105.881 110 104.5C110 103.119 108.881 102 107.5 102C106.119 102 105 103.119 105 104.5C105 105.881 106.119 107 107.5 107Z" fill="white"/>
<path d="M142.5 107C143.881 107 145 105.881 145 104.5C145 103.119 143.881 102 142.5 102C141.119 102 140 103.119 140 104.5C140 105.881 141.119 107 142.5 107Z" fill="white"/>
<path d="M177.5 107C178.881 107 180 105.881 180 104.5C180 103.119 178.881 102 177.5 102C176.119 102 175 103.119 175 104.5C175 105.881 176.119 107 177.5 107Z" fill="white"/>
<path d="M212.5 107C213.881 107 215 105.881 215 104.5C215 103.119 213.881 102 212.5 102C211.119 102 210 103.119 210 104.5C210 105.881 211.119 107 212.5 107Z" fill="white"/>
<path d="M247.5 107C248.881 107 250 105.881 250 104.5C250 103.119 248.881 102 247.5 102C246.119 102 245 103.119 245 104.5C245 105.881 246.119 107 247.5 107Z" fill="white"/>
<path d="M282.5 107C283.881 107 285 105.881 285 104.5C285 103.119 283.881 102 282.5 102C281.119 102 280 103.119 280 104.5C280 105.881 281.119 107 282.5 107Z" fill="white"/>
<path d="M317.5 107C318.881 107 320 105.881 320 104.5C320 103.119 318.881 102 317.5 102C316.119 102 315 103.119 315 104.5C315 105.881 316.119 107 317.5 107Z" fill="white"/>
<path d="M352.5 107C353.881 107 355 105.881 355 104.5C355 103.119 353.881 102 352.5 102C351.119 102 350 103.119 350 104.5C350 105.881 351.119 107 352.5 107Z" fill="white"/>
<path d="M387.5 107C388.881 107 390 105.881 390 104.5C390 103.119 388.881 102 387.5 102C386.119 102 385 103.119 385 104.5C385 105.881 386.119 107 387.5 107Z" fill="white"/>
<path d="M492.5 107C493.881 107 495 105.881 495 104.5C495 103.119 493.881 102 492.5 102C491.119 102 490 103.119 490 104.5C490 105.881 491.119 107 492.5 107Z" fill="white"/>
<path d="M457.5 107C458.881 107 460 105.881 460 104.5C460 103.119 458.881 102 457.5 102C456.119 102 455 103.119 455 104.5C455 105.881 456.119 107 457.5 107Z" fill="white"/>
<path d="M422.5 107C423.881 107 425 105.881 425 104.5C425 103.119 423.881 102 422.5 102C421.119 102 420 103.119 420 104.5C420 105.881 421.119 107 422.5 107Z" fill="white"/>
<path d="M2.5 73C3.88071 73 5 71.8807 5 70.5C5 69.1193 3.88071 68 2.5 68C1.11929 68 0 69.1193 0 70.5C0 71.8807 1.11929 73 2.5 73Z" fill="white"/>
<path d="M527.5 73C528.881 73 530 71.8807 530 70.5C530 69.1193 528.881 68 527.5 68C526.119 68 525 69.1193 525 70.5C525 71.8807 526.119 73 527.5 73Z" fill="white"/>
<path d="M562.5 73C563.881 73 565 71.8807 565 70.5C565 69.1193 563.881 68 562.5 68C561.119 68 560 69.1193 560 70.5C560 71.8807 561.119 73 562.5 73Z" fill="white"/>
<path d="M37.5 73C38.8807 73 40 71.8807 40 70.5C40 69.1193 38.8807 68 37.5 68C36.1193 68 35 69.1193 35 70.5C35 71.8807 36.1193 73 37.5 73Z" fill="white"/>
<path d="M72.5 73C73.8807 73 75 71.8807 75 70.5C75 69.1193 73.8807 68 72.5 68C71.1193 68 70 69.1193 70 70.5C70 71.8807 71.1193 73 72.5 73Z" fill="white"/>
<path d="M107.5 73C108.881 73 110 71.8807 110 70.5C110 69.1193 108.881 68 107.5 68C106.119 68 105 69.1193 105 70.5C105 71.8807 106.119 73 107.5 73Z" fill="white"/>
<path d="M142.5 73C143.881 73 145 71.8807 145 70.5C145 69.1193 143.881 68 142.5 68C141.119 68 140 69.1193 140 70.5C140 71.8807 141.119 73 142.5 73Z" fill="white"/>
<path d="M177.5 73C178.881 73 180 71.8807 180 70.5C180 69.1193 178.881 68 177.5 68C176.119 68 175 69.1193 175 70.5C175 71.8807 176.119 73 177.5 73Z" fill="white"/>
<path d="M212.5 73C213.881 73 215 71.8807 215 70.5C215 69.1193 213.881 68 212.5 68C211.119 68 210 69.1193 210 70.5C210 71.8807 211.119 73 212.5 73Z" fill="white"/>
<path d="M247.5 73C248.881 73 250 71.8807 250 70.5C250 69.1193 248.881 68 247.5 68C246.119 68 245 69.1193 245 70.5C245 71.8807 246.119 73 247.5 73Z" fill="white"/>
<path d="M282.5 73C283.881 73 285 71.8807 285 70.5C285 69.1193 283.881 68 282.5 68C281.119 68 280 69.1193 280 70.5C280 71.8807 281.119 73 282.5 73Z" fill="white"/>
<path d="M317.5 73C318.881 73 320 71.8807 320 70.5C320 69.1193 318.881 68 317.5 68C316.119 68 315 69.1193 315 70.5C315 71.8807 316.119 73 317.5 73Z" fill="white"/>
<path d="M352.5 73C353.881 73 355 71.8807 355 70.5C355 69.1193 353.881 68 352.5 68C351.119 68 350 69.1193 350 70.5C350 71.8807 351.119 73 352.5 73Z" fill="white"/>
<path d="M387.5 73C388.881 73 390 71.8807 390 70.5C390 69.1193 388.881 68 387.5 68C386.119 68 385 69.1193 385 70.5C385 71.8807 386.119 73 387.5 73Z" fill="white"/>
<path d="M492.5 73C493.881 73 495 71.8807 495 70.5C495 69.1193 493.881 68 492.5 68C491.119 68 490 69.1193 490 70.5C490 71.8807 491.119 73 492.5 73Z" fill="white"/>
<path d="M457.5 73C458.881 73 460 71.8807 460 70.5C460 69.1193 458.881 68 457.5 68C456.119 68 455 69.1193 455 70.5C455 71.8807 456.119 73 457.5 73Z" fill="white"/>
<path d="M422.5 73C423.881 73 425 71.8807 425 70.5C425 69.1193 423.881 68 422.5 68C421.119 68 420 69.1193 420 70.5C420 71.8807 421.119 73 422.5 73Z" fill="white"/>
<path d="M2.5 39C3.88071 39 5 37.8807 5 36.5C5 35.1193 3.88071 34 2.5 34C1.11929 34 0 35.1193 0 36.5C0 37.8807 1.11929 39 2.5 39Z" fill="white"/>
<path d="M527.5 39C528.881 39 530 37.8807 530 36.5C530 35.1193 528.881 34 527.5 34C526.119 34 525 35.1193 525 36.5C525 37.8807 526.119 39 527.5 39Z" fill="white"/>
<path d="M562.5 39C563.881 39 565 37.8807 565 36.5C565 35.1193 563.881 34 562.5 34C561.119 34 560 35.1193 560 36.5C560 37.8807 561.119 39 562.5 39Z" fill="white"/>
<path d="M37.5 39C38.8807 39 40 37.8807 40 36.5C40 35.1193 38.8807 34 37.5 34C36.1193 34 35 35.1193 35 36.5C35 37.8807 36.1193 39 37.5 39Z" fill="white"/>
<path d="M72.5 39C73.8807 39 75 37.8807 75 36.5C75 35.1193 73.8807 34 72.5 34C71.1193 34 70 35.1193 70 36.5C70 37.8807 71.1193 39 72.5 39Z" fill="white"/>
<path d="M107.5 39C108.881 39 110 37.8807 110 36.5C110 35.1193 108.881 34 107.5 34C106.119 34 105 35.1193 105 36.5C105 37.8807 106.119 39 107.5 39Z" fill="white"/>
<path d="M142.5 39C143.881 39 145 37.8807 145 36.5C145 35.1193 143.881 34 142.5 34C141.119 34 140 35.1193 140 36.5C140 37.8807 141.119 39 142.5 39Z" fill="white"/>
<path d="M177.5 39C178.881 39 180 37.8807 180 36.5C180 35.1193 178.881 34 177.5 34C176.119 34 175 35.1193 175 36.5C175 37.8807 176.119 39 177.5 39Z" fill="white"/>
<path d="M212.5 39C213.881 39 215 37.8807 215 36.5C215 35.1193 213.881 34 212.5 34C211.119 34 210 35.1193 210 36.5C210 37.8807 211.119 39 212.5 39Z" fill="white"/>
<path d="M247.5 39C248.881 39 250 37.8807 250 36.5C250 35.1193 248.881 34 247.5 34C246.119 34 245 35.1193 245 36.5C245 37.8807 246.119 39 247.5 39Z" fill="white"/>
<path d="M282.5 39C283.881 39 285 37.8807 285 36.5C285 35.1193 283.881 34 282.5 34C281.119 34 280 35.1193 280 36.5C280 37.8807 281.119 39 282.5 39Z" fill="white"/>
<path d="M317.5 39C318.881 39 320 37.8807 320 36.5C320 35.1193 318.881 34 317.5 34C316.119 34 315 35.1193 315 36.5C315 37.8807 316.119 39 317.5 39Z" fill="white"/>
<path d="M352.5 39C353.881 39 355 37.8807 355 36.5C355 35.1193 353.881 34 352.5 34C351.119 34 350 35.1193 350 36.5C350 37.8807 351.119 39 352.5 39Z" fill="white"/>
<path d="M387.5 39C388.881 39 390 37.8807 390 36.5C390 35.1193 388.881 34 387.5 34C386.119 34 385 35.1193 385 36.5C385 37.8807 386.119 39 387.5 39Z" fill="white"/>
<path d="M492.5 39C493.881 39 495 37.8807 495 36.5C495 35.1193 493.881 34 492.5 34C491.119 34 490 35.1193 490 36.5C490 37.8807 491.119 39 492.5 39Z" fill="white"/>
<path d="M457.5 39C458.881 39 460 37.8807 460 36.5C460 35.1193 458.881 34 457.5 34C456.119 34 455 35.1193 455 36.5C455 37.8807 456.119 39 457.5 39Z" fill="white"/>
<path d="M422.5 39C423.881 39 425 37.8807 425 36.5C425 35.1193 423.881 34 422.5 34C421.119 34 420 35.1193 420 36.5C420 37.8807 421.119 39 422.5 39Z" fill="white"/>
<path d="M2.5 5C3.88071 5 5 3.88071 5 2.5C5 1.11929 3.88071 0 2.5 0C1.11929 0 0 1.11929 0 2.5C0 3.88071 1.11929 5 2.5 5Z" fill="white"/>
<path d="M527.5 5C528.881 5 530 3.88071 530 2.5C530 1.11929 528.881 0 527.5 0C526.119 0 525 1.11929 525 2.5C525 3.88071 526.119 5 527.5 5Z" fill="white"/>
<path d="M562.5 5C563.881 5 565 3.88071 565 2.5C565 1.11929 563.881 0 562.5 0C561.119 0 560 1.11929 560 2.5C560 3.88071 561.119 5 562.5 5Z" fill="white"/>
<path d="M37.5 5C38.8807 5 40 3.88071 40 2.5C40 1.11929 38.8807 0 37.5 0C36.1193 0 35 1.11929 35 2.5C35 3.88071 36.1193 5 37.5 5Z" fill="white"/>
<path d="M72.5 5C73.8807 5 75 3.88071 75 2.5C75 1.11929 73.8807 0 72.5 0C71.1193 0 70 1.11929 70 2.5C70 3.88071 71.1193 5 72.5 5Z" fill="white"/>
<path d="M107.5 5C108.881 5 110 3.88071 110 2.5C110 1.11929 108.881 0 107.5 0C106.119 0 105 1.11929 105 2.5C105 3.88071 106.119 5 107.5 5Z" fill="white"/>
<path d="M142.5 5C143.881 5 145 3.88071 145 2.5C145 1.11929 143.881 0 142.5 0C141.119 0 140 1.11929 140 2.5C140 3.88071 141.119 5 142.5 5Z" fill="white"/>
<path d="M177.5 5C178.881 5 180 3.88071 180 2.5C180 1.11929 178.881 0 177.5 0C176.119 0 175 1.11929 175 2.5C175 3.88071 176.119 5 177.5 5Z" fill="white"/>
<path d="M212.5 5C213.881 5 215 3.88071 215 2.5C215 1.11929 213.881 0 212.5 0C211.119 0 210 1.11929 210 2.5C210 3.88071 211.119 5 212.5 5Z" fill="white"/>
<path d="M247.5 5C248.881 5 250 3.88071 250 2.5C250 1.11929 248.881 0 247.5 0C246.119 0 245 1.11929 245 2.5C245 3.88071 246.119 5 247.5 5Z" fill="white"/>
<path d="M282.5 5C283.881 5 285 3.88071 285 2.5C285 1.11929 283.881 0 282.5 0C281.119 0 280 1.11929 280 2.5C280 3.88071 281.119 5 282.5 5Z" fill="white"/>
<path d="M317.5 5C318.881 5 320 3.88071 320 2.5C320 1.11929 318.881 0 317.5 0C316.119 0 315 1.11929 315 2.5C315 3.88071 316.119 5 317.5 5Z" fill="white"/>
<path d="M352.5 5C353.881 5 355 3.88071 355 2.5C355 1.11929 353.881 0 352.5 0C351.119 0 350 1.11929 350 2.5C350 3.88071 351.119 5 352.5 5Z" fill="white"/>
<path d="M387.5 5C388.881 5 390 3.88071 390 2.5C390 1.11929 388.881 0 387.5 0C386.119 0 385 1.11929 385 2.5C385 3.88071 386.119 5 387.5 5Z" fill="white"/>
<path d="M492.5 5C493.881 5 495 3.88071 495 2.5C495 1.11929 493.881 0 492.5 0C491.119 0 490 1.11929 490 2.5C490 3.88071 491.119 5 492.5 5Z" fill="white"/>
<path d="M457.5 5C458.881 5 460 3.88071 460 2.5C460 1.11929 458.881 0 457.5 0C456.119 0 455 1.11929 455 2.5C455 3.88071 456.119 5 457.5 5Z" fill="white"/>
<path d="M422.5 5C423.881 5 425 3.88071 425 2.5C425 1.11929 423.881 0 422.5 0C421.119 0 420 1.11929 420 2.5C420 3.88071 421.119 5 422.5 5Z" fill="white"/>
</svg>
